<svg width="251" height="71" viewBox="0 0 251 71" fill="none" xmlns="http://www.w3.org/2000/svg">
<path fill-rule="evenodd" clip-rule="evenodd" d="M45.6953 0C36.3195 3.7826 29.6004 10.8903 27.2868 15.9597C25.8215 18.7741 25 21.9314 25 25.2668C25 37.0927 35.3264 46.6795 48.0647 46.6795C60.803 46.6795 71.1294 37.0927 71.1294 25.2668C71.1294 13.4409 60.803 3.85407 48.0647 3.85407C45.9907 3.85407 43.9806 4.10822 42.0686 4.58479L45.6953 0ZM48.0627 36.4014C54.552 36.4014 59.8126 31.4162 59.8126 25.2668C59.8126 19.1173 54.552 14.1321 48.0627 14.1321C41.5734 14.1321 36.3128 19.1173 36.3128 25.2668C36.3128 31.4162 41.5734 36.4014 48.0627 36.4014Z" fill="#F0EFEF"/>
<path d="M92.6027 27.4084V16.2737C83.9997 14.7964 76.0484 19.7983 73.8909 27.2988C70.7245 38.9577 80.8728 48.1923 92.6027 46.6798C102.321 45.0953 106.049 38.3824 106.53 30.8344V5.56738H94.5621V30.8344C94.3106 33.11 93.8431 34.3987 92.6027 35.1169C83.4841 38.4956 82.0325 25.553 92.6027 27.4084Z" fill="#F0EFEF"/>
<path d="M127.904 27.9331H120.506C120.64 27.0079 120.763 26.5048 121.379 25.7933C123.12 24.0803 127.096 23.702 128.995 27.9331C131.389 33.5019 126.523 40.3531 121.162 35.6431L114.416 43.1376C118.333 45.7071 121.171 47.1098 127.904 46.5636C134.217 45.493 140.748 40.5537 141.398 33.0721C142.268 26.6498 138.258 17.7419 127.904 16.1561C120.652 14.6415 107.81 18.3981 108.756 33.0721H126.163C128.594 31.7119 127.644 31.1038 126.163 30.2885C124.836 29.1818 125.364 28.9236 127.904 27.9331Z" fill="#F0EFEF"/>
<path fill-rule="evenodd" clip-rule="evenodd" d="M166.44 28.0511H176.365C174.712 21.066 168.114 15.8457 160.226 15.8457C151.093 15.8457 143.689 22.8441 143.689 31.477C143.689 40.1099 151.093 47.1083 160.226 47.1083C168.512 47.1083 175.375 41.3479 176.577 33.8325H166.549C165.445 36.1079 163.029 37.6864 160.226 37.6864C156.381 37.6864 153.263 34.7145 153.263 31.0485C153.263 27.3824 156.381 24.4105 160.226 24.4105C162.94 24.4105 165.292 25.891 166.44 28.0511Z" fill="#F0EFEF"/>
<ellipse cx="160.226" cy="31.0485" rx="5.65737" ry="5.35318" fill="#ED1C24"/>
<path fill-rule="evenodd" clip-rule="evenodd" d="M201.503 28.052H211.427C209.774 21.067 203.176 15.8467 195.288 15.8467C186.155 15.8467 178.751 22.8451 178.751 31.478C178.751 40.1109 186.155 47.1093 195.288 47.1093C203.574 47.1093 210.437 41.3488 211.639 33.8335H201.611C200.507 36.1088 198.091 37.6874 195.289 37.6874C191.443 37.6874 188.326 34.7155 188.326 31.0494C188.326 27.3834 191.443 24.4115 195.289 24.4115C198.003 24.4115 200.354 25.892 201.503 28.052Z" fill="#F0EFEF"/>
<path fill-rule="evenodd" clip-rule="evenodd" d="M200.722 32.5488C200.037 34.7755 197.864 36.4027 195.289 36.4027C192.165 36.4027 189.632 34.006 189.632 31.0495C189.632 28.093 192.165 25.6963 195.289 25.6963C198.027 25.6963 200.31 27.5356 200.834 29.9792H211.389V32.5488H200.722Z" fill="#ED1C24"/>
<rect x="213.815" y="16.7012" width="12.1851" height="29.9778" fill="#F0EFEF"/>
<ellipse cx="219.69" cy="9.84954" rx="5.87497" ry="5.56731" fill="#F0EFEF"/>
</svg>
