<svg width="526" height="185" viewBox="0 0 526 185" fill="none" xmlns="http://www.w3.org/2000/svg">
<path fill-rule="evenodd" clip-rule="evenodd" d="M54.1579 0C29.6194 9.85721 12.0349 28.3804 5.98236 41.5898C2.14893 48.922 0 57.1474 0 65.8369C0 96.6509 27.0234 121.631 60.3583 121.631C93.6933 121.631 120.717 96.6509 120.717 65.8369C120.717 35.0228 93.6933 10.0431 60.3583 10.0431C54.9306 10.0431 49.6701 10.7054 44.6664 11.9473L54.1579 0ZM60.3532 94.8489C77.3351 94.8489 91.1017 81.8595 91.1017 65.8362C91.1017 49.8129 77.3351 36.8234 60.3532 36.8234C43.3712 36.8234 29.6046 49.8129 29.6046 65.8362C29.6046 81.8595 43.3712 94.8489 60.3532 94.8489Z" fill="#102B3C"/>
<path d="M176.91 71.4155V42.4027C154.397 38.5532 133.589 51.5864 127.943 71.13C119.657 101.509 146.214 125.571 176.91 121.63C202.342 117.501 212.098 100.01 213.356 80.3425V14.5059H182.038V80.3425C181.38 86.2719 180.156 89.6298 176.91 91.5012C153.048 100.305 149.249 66.581 176.91 71.4155Z" fill="#102B3C"/>
<path d="M269.29 72.7849H249.93C250.281 70.3743 250.604 69.0633 252.216 67.2094C256.772 62.7459 267.175 61.7602 272.146 72.7849C278.409 87.2951 265.676 105.147 251.647 92.8745L233.995 112.402C244.244 119.098 251.672 122.752 269.29 121.329C285.812 118.54 302.902 105.67 304.603 86.1754C306.88 69.4412 296.387 46.2304 269.29 42.0983C250.312 38.1518 216.707 47.9403 219.181 86.1754H264.735C271.097 82.6312 268.611 81.0468 264.735 78.9222C261.261 76.0386 262.644 75.3658 269.29 72.7849Z" fill="#102B3C"/>
<path fill-rule="evenodd" clip-rule="evenodd" d="M370.137 73.0893H396.109C391.785 54.8891 374.518 41.2871 353.876 41.2871C329.975 41.2871 310.6 59.5223 310.6 82.0165C310.6 104.511 329.975 122.746 353.876 122.746C375.56 122.746 393.519 107.736 396.664 88.1536H370.422C367.533 94.0829 361.21 98.1964 353.876 98.1964C343.812 98.1964 335.654 90.4527 335.654 80.9004C335.654 71.348 343.812 63.6043 353.876 63.6043C360.978 63.6043 367.131 67.4614 370.137 73.0893Z" fill="#102B3C"/>
<ellipse cx="353.876" cy="80.9006" rx="14.8049" ry="13.9484" fill="#ED1C24"/>
<path fill-rule="evenodd" clip-rule="evenodd" d="M461.893 73.0903H487.864C483.539 54.8901 466.273 41.2881 445.631 41.2881C421.73 41.2881 402.355 59.5233 402.355 82.0175C402.355 104.512 421.73 122.747 445.631 122.747C467.315 122.747 485.274 107.737 488.419 88.1546H462.178C459.288 94.0836 452.966 98.197 445.631 98.197C435.568 98.197 427.41 90.4533 427.41 80.9009C427.41 71.3486 435.568 63.6049 445.631 63.6049C452.734 63.6049 458.887 67.4622 461.893 73.0903Z" fill="#102B3C"/>
<path fill-rule="evenodd" clip-rule="evenodd" d="M459.85 84.8063C458.057 90.6088 452.371 94.849 445.633 94.849C437.457 94.849 430.828 88.6041 430.828 80.9006C430.828 73.1971 437.457 66.9521 445.633 66.9521C452.796 66.9521 458.77 71.7442 460.142 78.111H487.765V84.8063H459.85Z" fill="#ED1C24"/>
<rect x="494.113" y="43.5186" width="31.8874" height="78.1112" fill="#102B3C"/>
<ellipse cx="509.487" cy="25.6646" rx="15.3743" ry="14.5064" fill="#102B3C"/>
<path d="M92.6915 168.974C92.6915 169.994 92.8115 170.914 93.0514 171.734C93.3115 172.554 93.6715 173.264 94.1314 173.864C94.6115 174.444 95.1915 174.894 95.8714 175.214C96.5514 175.534 97.3314 175.694 98.2114 175.694C99.0714 175.694 99.8415 175.534 100.521 175.214C101.221 174.894 101.801 174.444 102.261 173.864C102.741 173.264 103.101 172.554 103.341 171.734C103.601 170.914 103.731 169.994 103.731 168.974C103.731 167.954 103.601 167.034 103.341 166.214C103.101 165.374 102.741 164.664 102.261 164.084C101.801 163.484 101.221 163.024 100.521 162.704C99.8415 162.384 99.0714 162.224 98.2114 162.224C97.3314 162.224 96.5514 162.394 95.8714 162.734C95.1915 163.054 94.6115 163.514 94.1314 164.114C93.6715 164.694 93.3115 165.404 93.0514 166.244C92.8115 167.064 92.6915 167.974 92.6915 168.974ZM108.561 168.974C108.561 170.754 108.291 172.324 107.751 173.684C107.231 175.024 106.511 176.154 105.591 177.074C104.671 177.974 103.571 178.654 102.291 179.114C101.031 179.574 99.6714 179.804 98.2114 179.804C96.7914 179.804 95.4514 179.574 94.1914 179.114C92.9315 178.654 91.8315 177.974 90.8915 177.074C89.9515 176.154 89.2115 175.024 88.6715 173.684C88.1315 172.324 87.8615 170.754 87.8615 168.974C87.8615 167.194 88.1415 165.634 88.7015 164.294C89.2615 162.934 90.0115 161.794 90.9515 160.874C91.9115 159.954 93.0114 159.264 94.2515 158.804C95.5114 158.344 96.8314 158.114 98.2114 158.114C99.6314 158.114 100.971 158.344 102.231 158.804C103.491 159.264 104.591 159.954 105.531 160.874C106.471 161.794 107.211 162.934 107.751 164.294C108.291 165.634 108.561 167.194 108.561 168.974ZM118.973 171.374C118.973 172.754 119.283 173.864 119.903 174.704C120.523 175.544 121.443 175.964 122.663 175.964C123.063 175.964 123.433 175.954 123.773 175.934C124.113 175.894 124.393 175.854 124.613 175.814V167.684C124.333 167.504 123.963 167.354 123.503 167.234C123.063 167.114 122.613 167.054 122.153 167.054C120.033 167.054 118.973 168.494 118.973 171.374ZM129.083 178.874C128.683 178.994 128.223 179.114 127.703 179.234C127.183 179.334 126.633 179.424 126.053 179.504C125.493 179.584 124.913 179.644 124.313 179.684C123.733 179.744 123.173 179.774 122.633 179.774C121.333 179.774 120.173 179.584 119.153 179.204C118.133 178.824 117.273 178.284 116.573 177.584C115.873 176.864 115.333 176.004 114.953 175.004C114.593 173.984 114.413 172.844 114.413 171.584C114.413 170.304 114.573 169.154 114.893 168.134C115.213 167.094 115.673 166.214 116.273 165.494C116.873 164.774 117.603 164.224 118.463 163.844C119.343 163.464 120.343 163.274 121.463 163.274C122.083 163.274 122.633 163.334 123.113 163.454C123.613 163.574 124.113 163.744 124.613 163.964V156.824L129.083 156.104V178.874ZM135.518 171.614C135.518 170.214 135.728 168.994 136.148 167.954C136.588 166.894 137.158 166.014 137.858 165.314C138.558 164.614 139.358 164.084 140.258 163.724C141.178 163.364 142.118 163.184 143.078 163.184C145.318 163.184 147.088 163.874 148.388 165.254C149.688 166.614 150.338 168.624 150.338 171.284C150.338 171.544 150.328 171.834 150.308 172.154C150.288 172.454 150.268 172.724 150.248 172.964H140.108C140.208 173.884 140.638 174.614 141.398 175.154C142.158 175.694 143.178 175.964 144.458 175.964C145.278 175.964 146.078 175.894 146.858 175.754C147.658 175.594 148.308 175.404 148.808 175.184L149.408 178.814C149.168 178.934 148.848 179.054 148.448 179.174C148.048 179.294 147.598 179.394 147.098 179.474C146.618 179.574 146.098 179.654 145.538 179.714C144.978 179.774 144.418 179.804 143.858 179.804C142.438 179.804 141.198 179.594 140.138 179.174C139.098 178.754 138.228 178.184 137.528 177.464C136.848 176.724 136.338 175.854 135.998 174.854C135.678 173.854 135.518 172.774 135.518 171.614ZM146.018 169.904C145.998 169.524 145.928 169.154 145.808 168.794C145.708 168.434 145.538 168.114 145.298 167.834C145.078 167.554 144.788 167.324 144.428 167.144C144.088 166.964 143.658 166.874 143.138 166.874C142.638 166.874 142.208 166.964 141.848 167.144C141.488 167.304 141.188 167.524 140.948 167.804C140.708 168.084 140.518 168.414 140.378 168.794C140.258 169.154 140.168 169.524 140.108 169.904H146.018ZM156.038 171.494C156.038 170.354 156.218 169.284 156.578 168.284C156.958 167.264 157.498 166.384 158.198 165.644C158.898 164.884 159.748 164.284 160.748 163.844C161.748 163.404 162.888 163.184 164.168 163.184C165.008 163.184 165.778 163.264 166.478 163.424C167.178 163.564 167.858 163.774 168.518 164.054L167.588 167.624C167.168 167.464 166.708 167.324 166.208 167.204C165.708 167.084 165.148 167.024 164.528 167.024C163.208 167.024 162.218 167.434 161.558 168.254C160.918 169.074 160.598 170.154 160.598 171.494C160.598 172.914 160.898 174.014 161.498 174.794C162.118 175.574 163.188 175.964 164.708 175.964C165.248 175.964 165.828 175.914 166.448 175.814C167.068 175.714 167.638 175.554 168.158 175.334L168.788 178.994C168.268 179.214 167.618 179.404 166.838 179.564C166.058 179.724 165.198 179.804 164.258 179.804C162.818 179.804 161.578 179.594 160.538 179.174C159.498 178.734 158.638 178.144 157.958 177.404C157.298 176.664 156.808 175.794 156.488 174.794C156.188 173.774 156.038 172.674 156.038 171.494ZM173.276 171.494C173.276 170.354 173.456 169.284 173.816 168.284C174.196 167.264 174.736 166.384 175.436 165.644C176.136 164.884 176.986 164.284 177.986 163.844C178.986 163.404 180.126 163.184 181.406 163.184C182.246 163.184 183.016 163.264 183.716 163.424C184.416 163.564 185.096 163.774 185.756 164.054L184.826 167.624C184.406 167.464 183.946 167.324 183.446 167.204C182.946 167.084 182.386 167.024 181.766 167.024C180.446 167.024 179.456 167.434 178.796 168.254C178.156 169.074 177.836 170.154 177.836 171.494C177.836 172.914 178.136 174.014 178.736 174.794C179.356 175.574 180.426 175.964 181.946 175.964C182.486 175.964 183.066 175.914 183.686 175.814C184.306 175.714 184.876 175.554 185.396 175.334L186.026 178.994C185.506 179.214 184.856 179.404 184.076 179.564C183.296 179.724 182.436 179.804 181.496 179.804C180.056 179.804 178.816 179.594 177.776 179.174C176.736 178.734 175.876 178.144 175.196 177.404C174.536 176.664 174.046 175.794 173.726 174.794C173.426 173.774 173.276 172.674 173.276 171.494ZM196.496 179.384H192.026V163.604H196.496V179.384ZM196.916 159.044C196.916 159.864 196.646 160.514 196.106 160.994C195.586 161.454 194.966 161.684 194.246 161.684C193.526 161.684 192.896 161.454 192.356 160.994C191.836 160.514 191.576 159.864 191.576 159.044C191.576 158.224 191.836 157.584 192.356 157.124C192.896 156.644 193.526 156.404 194.246 156.404C194.966 156.404 195.586 156.644 196.106 157.124C196.646 157.584 196.916 158.224 196.916 159.044ZM219.875 175.814C220.535 175.814 221.075 175.764 221.495 175.664C221.935 175.544 222.285 175.394 222.545 175.214C222.805 175.014 222.985 174.784 223.085 174.524C223.185 174.264 223.235 173.974 223.235 173.654C223.235 172.974 222.915 172.414 222.275 171.974C221.635 171.514 220.535 171.024 218.975 170.504C218.295 170.264 217.615 169.994 216.935 169.694C216.255 169.374 215.645 168.984 215.105 168.524C214.565 168.044 214.125 167.474 213.785 166.814C213.445 166.134 213.275 165.314 213.275 164.354C213.275 163.394 213.455 162.534 213.815 161.774C214.175 160.994 214.685 160.334 215.345 159.794C216.005 159.254 216.805 158.844 217.745 158.564C218.685 158.264 219.745 158.114 220.925 158.114C222.325 158.114 223.535 158.264 224.555 158.564C225.575 158.864 226.415 159.194 227.075 159.554L225.725 163.244C225.145 162.944 224.495 162.684 223.775 162.464C223.075 162.224 222.225 162.104 221.225 162.104C220.105 162.104 219.295 162.264 218.795 162.584C218.315 162.884 218.075 163.354 218.075 163.994C218.075 164.374 218.165 164.694 218.345 164.954C218.525 165.214 218.775 165.454 219.095 165.674C219.435 165.874 219.815 166.064 220.235 166.244C220.675 166.404 221.155 166.574 221.675 166.754C222.755 167.154 223.695 167.554 224.495 167.954C225.295 168.334 225.955 168.784 226.475 169.304C227.015 169.824 227.415 170.434 227.675 171.134C227.935 171.834 228.065 172.684 228.065 173.684C228.065 175.624 227.385 177.134 226.025 178.214C224.665 179.274 222.615 179.804 219.875 179.804C218.955 179.804 218.125 179.744 217.385 179.624C216.645 179.524 215.985 179.394 215.405 179.234C214.845 179.074 214.355 178.904 213.935 178.724C213.535 178.544 213.195 178.374 212.915 178.214L214.235 174.494C214.855 174.834 215.615 175.144 216.515 175.424C217.435 175.684 218.555 175.814 219.875 175.814ZM249.126 171.464C249.126 172.704 248.946 173.844 248.586 174.884C248.226 175.904 247.706 176.784 247.026 177.524C246.346 178.244 245.526 178.804 244.566 179.204C243.626 179.604 242.566 179.804 241.386 179.804C240.226 179.804 239.166 179.604 238.206 179.204C237.266 178.804 236.456 178.244 235.776 177.524C235.096 176.784 234.566 175.904 234.186 174.884C233.806 173.844 233.616 172.704 233.616 171.464C233.616 170.224 233.806 169.094 234.186 168.074C234.586 167.054 235.126 166.184 235.806 165.464C236.506 164.744 237.326 164.184 238.266 163.784C239.226 163.384 240.266 163.184 241.386 163.184C242.526 163.184 243.566 163.384 244.506 163.784C245.466 164.184 246.286 164.744 246.966 165.464C247.646 166.184 248.176 167.054 248.556 168.074C248.936 169.094 249.126 170.224 249.126 171.464ZM244.566 171.464C244.566 170.084 244.286 169.004 243.726 168.224C243.186 167.424 242.406 167.024 241.386 167.024C240.366 167.024 239.576 167.424 239.016 168.224C238.456 169.004 238.176 170.084 238.176 171.464C238.176 172.844 238.456 173.944 239.016 174.764C239.576 175.564 240.366 175.964 241.386 175.964C242.406 175.964 243.186 175.564 243.726 174.764C244.286 173.944 244.566 172.844 244.566 171.464ZM261.888 179.684C260.588 179.664 259.528 179.524 258.708 179.264C257.908 179.004 257.268 178.644 256.788 178.184C256.328 177.704 256.008 177.134 255.828 176.474C255.668 175.794 255.588 175.034 255.588 174.194V156.824L260.058 156.104V173.294C260.058 173.694 260.088 174.054 260.148 174.374C260.208 174.694 260.318 174.964 260.478 175.184C260.658 175.404 260.908 175.584 261.228 175.724C261.548 175.864 261.978 175.954 262.518 175.994L261.888 179.684ZM281.551 178.844C280.791 179.064 279.811 179.264 278.611 179.444C277.411 179.644 276.151 179.744 274.831 179.744C273.491 179.744 272.371 179.564 271.471 179.204C270.591 178.844 269.891 178.344 269.371 177.704C268.851 177.044 268.481 176.264 268.261 175.364C268.041 174.464 267.931 173.474 267.931 172.394V163.604H272.401V171.854C272.401 173.294 272.591 174.334 272.971 174.974C273.351 175.614 274.061 175.934 275.101 175.934C275.421 175.934 275.761 175.924 276.121 175.904C276.481 175.864 276.801 175.824 277.081 175.784V163.604H281.551V178.844ZM288.597 159.674L293.067 158.954V163.604H298.437V167.324H293.067V172.874C293.067 173.814 293.227 174.564 293.547 175.124C293.887 175.684 294.557 175.964 295.557 175.964C296.037 175.964 296.527 175.924 297.027 175.844C297.547 175.744 298.017 175.614 298.437 175.454L299.067 178.934C298.527 179.154 297.927 179.344 297.267 179.504C296.607 179.664 295.797 179.744 294.837 179.744C293.617 179.744 292.607 179.584 291.807 179.264C291.007 178.924 290.367 178.464 289.887 177.884C289.407 177.284 289.067 176.564 288.867 175.724C288.687 174.884 288.597 173.954 288.597 172.934V159.674ZM309.547 179.384H305.077V163.604H309.547V179.384ZM309.967 159.044C309.967 159.864 309.697 160.514 309.157 160.994C308.637 161.454 308.017 161.684 307.297 161.684C306.577 161.684 305.947 161.454 305.407 160.994C304.887 160.514 304.627 159.864 304.627 159.044C304.627 158.224 304.887 157.584 305.407 157.124C305.947 156.644 306.577 156.404 307.297 156.404C308.017 156.404 308.637 156.644 309.157 157.124C309.697 157.584 309.967 158.224 309.967 159.044ZM331.509 171.464C331.509 172.704 331.329 173.844 330.969 174.884C330.609 175.904 330.089 176.784 329.409 177.524C328.729 178.244 327.909 178.804 326.949 179.204C326.009 179.604 324.949 179.804 323.769 179.804C322.609 179.804 321.549 179.604 320.589 179.204C319.649 178.804 318.839 178.244 318.159 177.524C317.479 176.784 316.949 175.904 316.569 174.884C316.189 173.844 315.999 172.704 315.999 171.464C315.999 170.224 316.189 169.094 316.569 168.074C316.969 167.054 317.509 166.184 318.189 165.464C318.889 164.744 319.709 164.184 320.649 163.784C321.609 163.384 322.649 163.184 323.769 163.184C324.909 163.184 325.949 163.384 326.889 163.784C327.849 164.184 328.669 164.744 329.349 165.464C330.029 166.184 330.559 167.054 330.939 168.074C331.319 169.094 331.509 170.224 331.509 171.464ZM326.949 171.464C326.949 170.084 326.669 169.004 326.109 168.224C325.569 167.424 324.789 167.024 323.769 167.024C322.749 167.024 321.959 167.424 321.399 168.224C320.839 169.004 320.559 170.084 320.559 171.464C320.559 172.844 320.839 173.944 321.399 174.764C321.959 175.564 322.749 175.964 323.769 175.964C324.789 175.964 325.569 175.564 326.109 174.764C326.669 173.944 326.949 172.844 326.949 171.464ZM337.971 164.144C338.731 163.924 339.711 163.724 340.911 163.544C342.111 163.344 343.371 163.244 344.691 163.244C346.031 163.244 347.141 163.424 348.021 163.784C348.921 164.124 349.631 164.614 350.151 165.254C350.671 165.894 351.041 166.654 351.261 167.534C351.481 168.414 351.591 169.394 351.591 170.474V179.384H347.121V171.014C347.121 169.574 346.931 168.554 346.551 167.954C346.171 167.354 345.461 167.054 344.421 167.054C344.101 167.054 343.761 167.074 343.401 167.114C343.041 167.134 342.721 167.164 342.441 167.204V179.384H337.971V164.144ZM363.167 176.174C363.987 176.174 364.567 176.094 364.907 175.934C365.247 175.774 365.417 175.464 365.417 175.004C365.417 174.644 365.197 174.334 364.757 174.074C364.317 173.794 363.647 173.484 362.747 173.144C362.047 172.884 361.407 172.614 360.827 172.334C360.267 172.054 359.787 171.724 359.387 171.344C358.987 170.944 358.677 170.474 358.457 169.934C358.237 169.394 358.127 168.744 358.127 167.984C358.127 166.504 358.677 165.334 359.777 164.474C360.877 163.614 362.387 163.184 364.307 163.184C365.267 163.184 366.187 163.274 367.067 163.454C367.947 163.614 368.647 163.794 369.167 163.994L368.387 167.474C367.867 167.294 367.297 167.134 366.677 166.994C366.077 166.854 365.397 166.784 364.637 166.784C363.237 166.784 362.537 167.174 362.537 167.954C362.537 168.134 362.567 168.294 362.627 168.434C362.687 168.574 362.807 168.714 362.987 168.854C363.167 168.974 363.407 169.114 363.707 169.274C364.027 169.414 364.427 169.574 364.907 169.754C365.887 170.114 366.697 170.474 367.337 170.834C367.977 171.174 368.477 171.554 368.837 171.974C369.217 172.374 369.477 172.824 369.617 173.324C369.777 173.824 369.857 174.404 369.857 175.064C369.857 176.624 369.267 177.804 368.087 178.604C366.927 179.404 365.277 179.804 363.137 179.804C361.737 179.804 360.567 179.684 359.627 179.444C358.707 179.204 358.067 179.004 357.707 178.844L358.457 175.214C359.217 175.514 359.997 175.754 360.797 175.934C361.597 176.094 362.387 176.174 363.167 176.174ZM386.705 158.594H391.385V179.384H386.705V158.594ZM398.897 164.144C399.657 163.924 400.637 163.724 401.837 163.544C403.037 163.344 404.297 163.244 405.617 163.244C406.957 163.244 408.067 163.424 408.947 163.784C409.847 164.124 410.557 164.614 411.077 165.254C411.597 165.894 411.967 166.654 412.187 167.534C412.407 168.414 412.517 169.394 412.517 170.474V179.384H408.047V171.014C408.047 169.574 407.857 168.554 407.477 167.954C407.097 167.354 406.387 167.054 405.347 167.054C405.027 167.054 404.687 167.074 404.327 167.114C403.967 167.134 403.647 167.164 403.367 167.204V179.384H398.897V164.144ZM418.813 171.494C418.813 170.354 418.993 169.284 419.353 168.284C419.733 167.264 420.273 166.384 420.973 165.644C421.673 164.884 422.523 164.284 423.523 163.844C424.523 163.404 425.663 163.184 426.943 163.184C427.783 163.184 428.553 163.264 429.253 163.424C429.953 163.564 430.633 163.774 431.293 164.054L430.363 167.624C429.943 167.464 429.483 167.324 428.983 167.204C428.483 167.084 427.923 167.024 427.303 167.024C425.983 167.024 424.993 167.434 424.333 168.254C423.693 169.074 423.373 170.154 423.373 171.494C423.373 172.914 423.673 174.014 424.273 174.794C424.893 175.574 425.963 175.964 427.483 175.964C428.023 175.964 428.603 175.914 429.223 175.814C429.843 175.714 430.413 175.554 430.933 175.334L431.563 178.994C431.043 179.214 430.393 179.404 429.613 179.564C428.833 179.724 427.973 179.804 427.033 179.804C425.593 179.804 424.353 179.594 423.313 179.174C422.273 178.734 421.413 178.144 420.733 177.404C420.073 176.664 419.583 175.794 419.263 174.794C418.963 173.774 418.813 172.674 418.813 171.494ZM442.441 177.014C442.441 177.914 442.151 178.604 441.571 179.084C441.011 179.544 440.371 179.774 439.651 179.774C438.931 179.774 438.281 179.544 437.701 179.084C437.141 178.604 436.861 177.914 436.861 177.014C436.861 176.114 437.141 175.434 437.701 174.974C438.281 174.494 438.931 174.254 439.651 174.254C440.371 174.254 441.011 174.494 441.571 174.974C442.151 175.434 442.441 176.114 442.441 177.014Z" fill="#102B3C"/>
</svg>
