<svg version="1.2" xmlns="http://www.w3.org/2000/svg" viewBox="0 0 3710 3710" width="3710" height="3710">
	<title>reset</title>
	<defs>
		<linearGradient id="g1" x2="1" gradientUnits="userSpaceOnUse" gradientTransform="matrix(-2446.53,-3038.437,3082.176,-2481.749,3573.919,4029.532)">
			<stop offset="0" stop-color="#dae3fe"/>
			<stop offset="1" stop-color="#e9effd"/>
		</linearGradient>
		<linearGradient id="g2" x2="1" gradientUnits="userSpaceOnUse" gradientTransform="matrix(210.476,0,0,85.279,1058.891,1857.836)">
			<stop offset="0" stop-color="#dae3fe"/>
			<stop offset="1" stop-color="#e9effd"/>
		</linearGradient>
		<linearGradient id="g3" x2="1" gradientUnits="userSpaceOnUse" gradientTransform="matrix(210.04,0,0,85.237,824.828,1857.815)">
			<stop offset="0" stop-color="#dae3fe"/>
			<stop offset="1" stop-color="#e9effd"/>
		</linearGradient>
		<linearGradient id="g4" x2="1" gradientUnits="userSpaceOnUse" gradientTransform="matrix(209.603,0,0,85.194,591,1857.794)">
			<stop offset="0" stop-color="#dae3fe"/>
			<stop offset="1" stop-color="#e9effd"/>
		</linearGradient>
		<linearGradient id="g5" x2="1" gradientUnits="userSpaceOnUse" gradientTransform="matrix(210.107,0,0,84.57,1056.282,2010.971)">
			<stop offset="0" stop-color="#dae3fe"/>
			<stop offset="1" stop-color="#e9effd"/>
		</linearGradient>
		<linearGradient id="g6" x2="1" gradientUnits="userSpaceOnUse" gradientTransform="matrix(209.672,0,0,84.528,822.626,2010.873)">
			<stop offset="0" stop-color="#dae3fe"/>
			<stop offset="1" stop-color="#e9effd"/>
		</linearGradient>
		<linearGradient id="g7" x2="1" gradientUnits="userSpaceOnUse" gradientTransform="matrix(209.235,0,0,84.485,589.205,2010.776)">
			<stop offset="0" stop-color="#dae3fe"/>
			<stop offset="1" stop-color="#e9effd"/>
		</linearGradient>
		<linearGradient id="g8" x2="1" gradientUnits="userSpaceOnUse" gradientTransform="matrix(209.738,0,0,84.345,1053.681,2162.776)">
			<stop offset="0" stop-color="#dae3fe"/>
			<stop offset="1" stop-color="#e9effd"/>
		</linearGradient>
		<linearGradient id="g9" x2="1" gradientUnits="userSpaceOnUse" gradientTransform="matrix(209.304,0,0,84.302,820.432,2162.602)">
			<stop offset="0" stop-color="#dae3fe"/>
			<stop offset="1" stop-color="#e9effd"/>
		</linearGradient>
		<linearGradient id="g10" x2="1" gradientUnits="userSpaceOnUse" gradientTransform="matrix(208.87,0,0,84.26,587.417,2162.429)">
			<stop offset="0" stop-color="#dae3fe"/>
			<stop offset="1" stop-color="#e9effd"/>
		</linearGradient>
		<linearGradient id="g11" x2="1" gradientUnits="userSpaceOnUse" gradientTransform="matrix(209.371,0,0,84.121,1051.09,2314.055)">
			<stop offset="0" stop-color="#dae3fe"/>
			<stop offset="1" stop-color="#e9effd"/>
		</linearGradient>
		<linearGradient id="g12" x2="1" gradientUnits="userSpaceOnUse" gradientTransform="matrix(208.939,0,0,84.078,818.245,2313.806)">
			<stop offset="0" stop-color="#dae3fe"/>
			<stop offset="1" stop-color="#e9effd"/>
		</linearGradient>
		<linearGradient id="g13" x2="1" gradientUnits="userSpaceOnUse" gradientTransform="matrix(208.506,0,0,84.037,585.634,2313.557)">
			<stop offset="0" stop-color="#dae3fe"/>
			<stop offset="1" stop-color="#e9effd"/>
		</linearGradient>
		<linearGradient id="g14" x2="1" gradientUnits="userSpaceOnUse" gradientTransform="matrix(209.004,0,0,83.898,1048.507,2464.811)">
			<stop offset="0" stop-color="#dae3fe"/>
			<stop offset="1" stop-color="#e9effd"/>
		</linearGradient>
		<linearGradient id="g15" x2="1" gradientUnits="userSpaceOnUse" gradientTransform="matrix(208.573,0,0,83.856,816.066,2464.487)">
			<stop offset="0" stop-color="#dae3fe"/>
			<stop offset="1" stop-color="#e9effd"/>
		</linearGradient>
		<linearGradient id="g16" x2="1" gradientUnits="userSpaceOnUse" gradientTransform="matrix(208.143,0,0,83.813,583.857,2464.164)">
			<stop offset="0" stop-color="#dae3fe"/>
			<stop offset="1" stop-color="#e9effd"/>
		</linearGradient>
		<linearGradient id="g17" x2="1" gradientUnits="userSpaceOnUse" gradientTransform="matrix(208.64,0,0,83.676,1045.934,2615.047)">
			<stop offset="0" stop-color="#dae3fe"/>
			<stop offset="1" stop-color="#e9effd"/>
		</linearGradient>
		<linearGradient id="g18" x2="1" gradientUnits="userSpaceOnUse" gradientTransform="matrix(208.211,0,0,83.634,813.894,2614.648)">
			<stop offset="0" stop-color="#dae3fe"/>
			<stop offset="1" stop-color="#e9effd"/>
		</linearGradient>
		<linearGradient id="g19" x2="1" gradientUnits="userSpaceOnUse" gradientTransform="matrix(207.782,0,0,83.592,582.087,2614.251)">
			<stop offset="0" stop-color="#dae3fe"/>
			<stop offset="1" stop-color="#e9effd"/>
		</linearGradient>
		<linearGradient id="g20" x2="1" gradientUnits="userSpaceOnUse" gradientTransform="matrix(208.277,0,0,83.454,1043.368,2764.764)">
			<stop offset="0" stop-color="#dae3fe"/>
			<stop offset="1" stop-color="#e9effd"/>
		</linearGradient>
		<linearGradient id="g21" x2="1" gradientUnits="userSpaceOnUse" gradientTransform="matrix(207.848,0,0,83.414,811.73,2764.292)">
			<stop offset="0" stop-color="#dae3fe"/>
			<stop offset="1" stop-color="#e9effd"/>
		</linearGradient>
		<linearGradient id="g22" x2="1" gradientUnits="userSpaceOnUse" gradientTransform="matrix(207.421,0,0,83.372,580.322,2763.82)">
			<stop offset="0" stop-color="#dae3fe"/>
			<stop offset="1" stop-color="#e9effd"/>
		</linearGradient>
		<linearGradient id="g23" x2="1" gradientUnits="userSpaceOnUse" gradientTransform="matrix(207.915,0,0,83.234,1040.813,2913.967)">
			<stop offset="0" stop-color="#dae3fe"/>
			<stop offset="1" stop-color="#e9effd"/>
		</linearGradient>
		<linearGradient id="g24" x2="1" gradientUnits="userSpaceOnUse" gradientTransform="matrix(207.488,0,0,83.193,809.574,2913.421)">
			<stop offset="0" stop-color="#dae3fe"/>
			<stop offset="1" stop-color="#e9effd"/>
		</linearGradient>
		<linearGradient id="g25" x2="1" gradientUnits="userSpaceOnUse" gradientTransform="matrix(207.062,0,0,83.152,578.564,2912.876)">
			<stop offset="0" stop-color="#dae3fe"/>
			<stop offset="1" stop-color="#e9effd"/>
		</linearGradient>
		<linearGradient id="g26" x2="1" gradientUnits="userSpaceOnUse" gradientTransform="matrix(207.554,0,0,83.015,1038.265,3062.658)">
			<stop offset="0" stop-color="#dae3fe"/>
			<stop offset="1" stop-color="#e9effd"/>
		</linearGradient>
		<linearGradient id="g27" x2="1" gradientUnits="userSpaceOnUse" gradientTransform="matrix(207.129,0,0,82.975,807.424,3062.039)">
			<stop offset="0" stop-color="#dae3fe"/>
			<stop offset="1" stop-color="#e9effd"/>
		</linearGradient>
		<linearGradient id="g28" x2="1" gradientUnits="userSpaceOnUse" gradientTransform="matrix(206.704,0,0,82.933,576.812,3061.421)">
			<stop offset="0" stop-color="#dae3fe"/>
			<stop offset="1" stop-color="#e9effd"/>
		</linearGradient>
		<linearGradient id="g29" x2="1" gradientUnits="userSpaceOnUse" gradientTransform="matrix(-604.109,3523.959,-2862.77,-490.762,2741.292,-790.185)">
			<stop offset="0" stop-color="#4042e2"/>
			<stop offset="1" stop-color="#4f52ff"/>
		</linearGradient>
		<linearGradient id="g30" x2="1" gradientUnits="userSpaceOnUse" gradientTransform="matrix(1068.226,0,0,1367.589,1711.996,2121.897)">
			<stop offset="0" stop-color="#4042e2"/>
			<stop offset="1" stop-color="#4f52ff"/>
		</linearGradient>
		<linearGradient id="g31" x2="1" gradientUnits="userSpaceOnUse" gradientTransform="matrix(324.993,-749.983,749.983,324.993,2329.296,944.24)">
			<stop offset="0" stop-color="#09005d"/>
			<stop offset="1" stop-color="#1a0f91"/>
		</linearGradient>
		<linearGradient id="g32" x2="1" gradientUnits="userSpaceOnUse" gradientTransform="matrix(-731.392,5069.301,-6530.881,-942.266,2358.845,1430.094)">
			<stop offset="0" stop-color="#febbba"/>
			<stop offset="1" stop-color="#ff928e"/>
		</linearGradient>
		<linearGradient id="g33" x2="1" gradientUnits="userSpaceOnUse" gradientTransform="matrix(-731.392,5069.303,-8483.357,-1223.967,2339.66,1427.326)">
			<stop offset="0" stop-color="#febbba"/>
			<stop offset="1" stop-color="#ff928e"/>
		</linearGradient>
		<linearGradient id="g34" x2="1" gradientUnits="userSpaceOnUse" gradientTransform="matrix(1072.189,-2131.764,1550.468,779.821,2381.418,2006.618)">
			<stop offset="0" stop-color="#fe7062"/>
			<stop offset="1" stop-color="#ff928e"/>
		</linearGradient>
		<linearGradient id="g35" x2="1" gradientUnits="userSpaceOnUse" gradientTransform="matrix(118.601,0,0,92.787,937.582,3175.357)">
			<stop offset="0" stop-color="#09005d"/>
			<stop offset="1" stop-color="#1a0f91"/>
		</linearGradient>
		<linearGradient id="g36" x2="1" gradientUnits="userSpaceOnUse" gradientTransform="matrix(-22.655,197.716,-158.776,-18.193,970.563,3040.335)">
			<stop offset="0" stop-color="#febbba"/>
			<stop offset="1" stop-color="#ff928e"/>
		</linearGradient>
		<linearGradient id="g37" x2="1" gradientUnits="userSpaceOnUse" gradientTransform="matrix(170.725,0,0,82.635,1118.18,3178.372)">
			<stop offset="0" stop-color="#09005d"/>
			<stop offset="1" stop-color="#1a0f91"/>
		</linearGradient>
		<linearGradient id="g38" x2="1" gradientUnits="userSpaceOnUse" gradientTransform="matrix(-10.173,198.749,-133.762,-6.847,1152.013,3061.218)">
			<stop offset="0" stop-color="#febbba"/>
			<stop offset="1" stop-color="#ff928e"/>
		</linearGradient>
		<linearGradient id="g39" x2="1" gradientUnits="userSpaceOnUse" gradientTransform="matrix(-234.495,-1118.145,422.106,-88.523,1120.729,3226.858)">
			<stop offset="0" stop-color="#09005d"/>
			<stop offset="1" stop-color="#1a0f91"/>
		</linearGradient>
		<linearGradient id="g40" x2="1" gradientUnits="userSpaceOnUse" gradientTransform="matrix(-518.132,571.616,-709.508,-643.121,1360.218,1699.066)">
			<stop offset="0" stop-color="#4042e2"/>
			<stop offset="1" stop-color="#4f52ff"/>
		</linearGradient>
		<linearGradient id="g41" x2="1" gradientUnits="userSpaceOnUse" gradientTransform="matrix(-755.278,1386.267,-830.769,-452.626,1259.488,1730.805)">
			<stop offset="0" stop-color="#4042e2"/>
			<stop offset="1" stop-color="#4f52ff"/>
		</linearGradient>
		<linearGradient id="g42" x2="1" gradientUnits="userSpaceOnUse" gradientTransform="matrix(52.616,-143.683,98.538,36.084,1060.942,1887.96)">
			<stop offset="0" stop-color="#febbba"/>
			<stop offset="1" stop-color="#ff928e"/>
		</linearGradient>
		<linearGradient id="g43" x2="1" gradientUnits="userSpaceOnUse" gradientTransform="matrix(-24.445,186.672,-200.547,-26.262,1106.476,1424.834)">
			<stop offset="0" stop-color="#4042e2"/>
			<stop offset="1" stop-color="#4f52ff"/>
		</linearGradient>
		<linearGradient id="g44" x2="1" gradientUnits="userSpaceOnUse" gradientTransform="matrix(-24.445,186.671,-269.322,-35.269,1149.232,1430.433)">
			<stop offset="0" stop-color="#4042e2"/>
			<stop offset="1" stop-color="#4f52ff"/>
		</linearGradient>
		<linearGradient id="g45" x2="1" gradientUnits="userSpaceOnUse" gradientTransform="matrix(-313.499,249.689,-299.914,-376.559,1190.268,1672.431)">
			<stop offset="0" stop-color="#febbba"/>
			<stop offset="1" stop-color="#ff928e"/>
		</linearGradient>
		<linearGradient id="g46" x2="1" gradientUnits="userSpaceOnUse" gradientTransform="matrix(143.69,185.001,-326.076,253.263,1069.242,1590.289)">
			<stop offset="0" stop-color="#09005d"/>
			<stop offset="1" stop-color="#1a0f91"/>
		</linearGradient>
		<linearGradient id="g47" x2="1" gradientUnits="userSpaceOnUse" gradientTransform="matrix(-154.282,118.049,-219.642,-287.056,1158.712,1658.749)">
			<stop offset="0" stop-color="#febbba"/>
			<stop offset="1" stop-color="#ff928e"/>
		</linearGradient>
		<linearGradient id="g48" x2="1" gradientUnits="userSpaceOnUse" gradientTransform="matrix(-326.66,282.173,-518.071,-599.749,1523.865,1736.742)">
			<stop offset="0" stop-color="#febbba"/>
			<stop offset="1" stop-color="#ff928e"/>
		</linearGradient>
		<linearGradient id="g49" x2="1" gradientUnits="userSpaceOnUse" gradientTransform="matrix(-317.975,274.671,-109.438,-126.691,1530.677,1763.048)">
			<stop offset="0" stop-color="#febbba"/>
			<stop offset="1" stop-color="#ff928e"/>
		</linearGradient>
		<linearGradient id="g50" x2="1" gradientUnits="userSpaceOnUse" gradientTransform="matrix(-326.659,282.173,-358.96,-415.552,1535.958,1750.741)">
			<stop offset="0" stop-color="#febbba"/>
			<stop offset="1" stop-color="#ff928e"/>
		</linearGradient>
		<linearGradient id="g51" x2="1" gradientUnits="userSpaceOnUse" gradientTransform="matrix(826.098,1090.455,-709.19,537.262,1123.626,1173.785)">
			<stop offset="0" stop-color="#e1473d"/>
			<stop offset="1" stop-color="#e9605a"/>
		</linearGradient>
		<linearGradient id="g52" x2="1" gradientUnits="userSpaceOnUse" gradientTransform="matrix(-153.475,752.701,-1533.863,-312.753,2007.187,1366.768)">
			<stop offset="0" stop-color="#fe7062"/>
			<stop offset="1" stop-color="#ff928e"/>
		</linearGradient>
		<linearGradient id="g53" x2="1" gradientUnits="userSpaceOnUse" gradientTransform="matrix(1295.421,96.852,-96.853,1295.423,1213.575,1722.875)">
			<stop offset="0" stop-color="#ff9085"/>
			<stop offset="1" stop-color="#fb6fbb"/>
		</linearGradient>
		<linearGradient id="g54" x2="1" gradientUnits="userSpaceOnUse" gradientTransform="matrix(313.341,-796.687,1615.18,635.26,1802.695,1673.699)">
			<stop offset="0" stop-color="#fe7062"/>
			<stop offset="1" stop-color="#ff928e"/>
		</linearGradient>
		<linearGradient id="g55" x2="1" gradientUnits="userSpaceOnUse" gradientTransform="matrix(-53.335,103.336,-103.336,-53.335,1975.295,826.091)">
			<stop offset="0" stop-color="#fe7062"/>
			<stop offset="1" stop-color="#ff928e"/>
		</linearGradient>
		<linearGradient id="g56" x2="1" gradientUnits="userSpaceOnUse" gradientTransform="matrix(-155.351,774.954,-1961.816,-393.275,1329.007,1982.252)">
			<stop offset="0" stop-color="#febbba"/>
			<stop offset="1" stop-color="#ff928e"/>
		</linearGradient>
	</defs>
	<style>
		.s0 { fill: url(#g1) } 
		.s1 { fill: #bdd0fb } 
		.s2 { fill: #ffffff } 
		.s3 { fill: url(#g2) } 
		.s4 { fill: url(#g3) } 
		.s5 { fill: url(#g4) } 
		.s6 { fill: url(#g5) } 
		.s7 { fill: url(#g6) } 
		.s8 { fill: url(#g7) } 
		.s9 { fill: url(#g8) } 
		.s10 { fill: url(#g9) } 
		.s11 { fill: url(#g10) } 
		.s12 { fill: url(#g11) } 
		.s13 { fill: url(#g12) } 
		.s14 { fill: url(#g13) } 
		.s15 { fill: url(#g14) } 
		.s16 { fill: url(#g15) } 
		.s17 { fill: url(#g16) } 
		.s18 { fill: url(#g17) } 
		.s19 { fill: url(#g18) } 
		.s20 { fill: url(#g19) } 
		.s21 { fill: url(#g20) } 
		.s22 { fill: url(#g21) } 
		.s23 { fill: url(#g22) } 
		.s24 { fill: url(#g23) } 
		.s25 { fill: url(#g24) } 
		.s26 { fill: url(#g25) } 
		.s27 { fill: url(#g26) } 
		.s28 { fill: url(#g27) } 
		.s29 { fill: url(#g28) } 
		.s30 { fill: #91b3fa } 
		.s31 { opacity: .57;fill: #ffffff } 
		.s32 { fill: #7d97f4 } 
		.s33 { fill: url(#g29) } 
		.s34 { fill: url(#g30) } 
		.s35 { fill: url(#g31) } 
		.s36 { fill: url(#g32) } 
		.s37 { fill: url(#g33) } 
		.s38 { fill: url(#g34) } 
		.s39 { fill: url(#g35) } 
		.s40 { fill: url(#g36) } 
		.s41 { fill: url(#g37) } 
		.s42 { fill: url(#g38) } 
		.s43 { fill: url(#g39) } 
		.s44 { fill: url(#g40) } 
		.s45 { fill: url(#g41) } 
		.s46 { fill: url(#g42) } 
		.s47 { fill: url(#g43) } 
		.s48 { fill: url(#g44) } 
		.s49 { fill: url(#g45) } 
		.s50 { fill: url(#g46) } 
		.s51 { fill: url(#g47) } 
		.s52 { fill: url(#g48) } 
		.s53 { fill: url(#g49) } 
		.s54 { fill: url(#g50) } 
		.s55 { fill: url(#g51) } 
		.s56 { fill: url(#g52) } 
		.s57 { fill: url(#g53) } 
		.s58 { fill: url(#g54) } 
		.s59 { fill: url(#g55) } 
		.s60 { fill: url(#g56) } 
	</style>
	<g id="Background">
		<g>
			<g>
			</g>
		</g>
	</g>
	<g id="Illustration">
		<g>
			<path class="s0" d="m2910.7 2824.5c-56.7 58.7-110.4 96.7-152.8 126.6-498.6 352.1-1088.5 249.5-1213.9 224.4-185.1-37-543-108.5-801.7-408-391.5-453.1-330.5-1166.9-26.9-1638.2 55.5-86.1 348.9-564.5 945.2-641.3 360.8-46.4 781.5 47.3 1086.1 298.5 639.4 527.2 593.9 1592.5 164 2038z"/>
			<g>
				<g>
					<path class="s1" d="m996.7 1243.8c0.2-13.4 11.4-24.1 25.1-24.1h832.3c13.9 0 28.7 11.1 28.7 24.6v1886.3c0 10.1-5.9 19.8-13.3 26.9-7.3 7.1-18.2 11.1-28.5 11.1l-841.4-2.3c-10.5 0-20.7-4.1-28-11.4-7.4-7.2-11.5-17.1-11.3-27.2z"/>
					<g style="opacity: .52">
						<path fill-rule="evenodd" class="s2" d="m1474.6 1353.4l272.3-0.9-0.1-33.1-272 0.8z"/>
						<path fill-rule="evenodd" class="s2" d="m1473.9 1475.3l273.3-1.3-0.1-33.3-273 1.1z"/>
						<path fill-rule="evenodd" class="s2" d="m1473.1 1598.1l274.5-1.5-0.1-33.6-274.2 1.4z"/>
						<path fill-rule="evenodd" class="s2" d="m1472.3 1722l275.7-1.8-0.1-33.9-275.3 1.7z"/>
						<path fill-rule="evenodd" class="s2" d="m1471.6 1846.9l276.8-2.1-0.1-34.2-276.5 2z"/>
						<path fill-rule="evenodd" class="s2" d="m1470 2099.9l279.1-2.8-0.1-34.8-278.8 2.7z"/>
						<path fill-rule="evenodd" class="s2" d="m1467.7 2487.4l282.6-3.8-0.1-35.6-282.3 3.7z"/>
						<path fill-rule="evenodd" class="s2" d="m1470.8 1972.9l278-2.5-0.1-34.5-277.7 2.4z"/>
						<path fill-rule="evenodd" class="s2" d="m1469.3 2228l280.2-3.1-0.1-35.1-279.9 3z"/>
						<path fill-rule="evenodd" class="s2" d="m1468.5 2357.1l281.4-3.4-0.1-35.4-281.1 3.4z"/>
						<path fill-rule="evenodd" class="s2" d="m1466.9 2618.8l283.8-4.1-0.1-36-283.5 4z"/>
						<path fill-rule="evenodd" class="s2" d="m1466 2751.3l285.1-4.5-0.1-36.2-284.7 4.3z"/>
						<path fill-rule="evenodd" class="s2" d="m1465.2 2885l286.3-4.9-0.1-36.5-285.9 4.7z"/>
						<path fill-rule="evenodd" class="s2" d="m1464.4 3019.8l287.6-5.2-0.2-36.9-287.2 5.1z"/>
						<path fill-rule="evenodd" class="s2" d="m1117.7 1354.6l273.9-0.9 0.3-33.2-273.6 0.8z"/>
						<path fill-rule="evenodd" class="s2" d="m1115.4 1476.8l275.1-1.2 0.3-33.4-274.7 1.1z"/>
						<path fill-rule="evenodd" class="s2" d="m1113.2 1600.1l276.2-1.5 0.3-33.8-275.9 1.5z"/>
						<path fill-rule="evenodd" class="s2" d="m1110.9 1724.4l277.4-1.9 0.3-34-277 1.8z"/>
						<path fill-rule="evenodd" class="s2" d="m1108.7 1849.7l278.5-2.1 0.3-34.4-278.2 2.1z"/>
						<path fill-rule="evenodd" class="s2" d="m1104.1 2103.5l280.9-2.8 0.3-34.9-280.6 2.7z"/>
						<path fill-rule="evenodd" class="s2" d="m1097 2492.3l284.5-3.7 0.3-35.8-284.2 3.7z"/>
						<path fill-rule="evenodd" class="s2" d="m1106.4 1976.1l279.7-2.5 0.3-34.6-279.4 2.4z"/>
						<path fill-rule="evenodd" class="s2" d="m1101.7 2232l282.1-3.1 0.3-35.2-281.7 3.1z"/>
						<path fill-rule="evenodd" class="s2" d="m1099.4 2361.6l283.3-3.4 0.3-35.5-283 3.4z"/>
						<path fill-rule="evenodd" class="s2" d="m1094.6 2624.2l285.7-4.2 0.3-36-285.4 4z"/>
						<path fill-rule="evenodd" class="s2" d="m1092.2 2757.1l286.9-4.4 0.4-36.4-286.7 4.4z"/>
						<path fill-rule="evenodd" class="s2" d="m1089.7 2891.3l288.2-4.9 0.4-36.7-287.9 4.8z"/>
						<path fill-rule="evenodd" class="s2" d="m1087.3 3026.6l289.4-5.3 0.4-37-289.2 5.1z"/>
					</g>
				</g>
				<g>
					<path class="s1" d="m519.1 1764.1c0.3-15.4 16.2-28.1 35.5-28.1h733.1c19.6 0 38.9 13.3 38.9 28.9v1396c0 7.5-5.4 14.7-12.1 20-6.7 5.3-16.6 8.2-26.1 8.2l-766.4-1.6c-9.5-0.1-18.9-3.1-25.5-8.5-6.7-5.4-10.5-12.9-10.3-20.5z"/>
					<g>
						<g>
							<path fill-rule="evenodd" class="s3" d="m1058.9 1900.5l208.8-0.2 1.7-85.1h-209.1z"/>
							<path fill-rule="evenodd" class="s4" d="m824.8 1900.4l208.6-0.2 1.5-85h-208.8z"/>
							<path fill-rule="evenodd" class="s5" d="m591 1900.4l208.4-0.2 1.2-85h-208.6z"/>
						</g>
						<g>
							<path fill-rule="evenodd" class="s6" d="m1056.3 2053.2l208.4 0.1 1.7-84.5-208.7-0.1z"/>
							<path fill-rule="evenodd" class="s7" d="m822.6 2053l208.3 0.1 1.4-84.4-208.5-0.1z"/>
							<path fill-rule="evenodd" class="s8" d="m589.2 2052.9l208 0.1 1.2-84.4-208.2-0.1z"/>
						</g>
						<g>
							<path fill-rule="evenodd" class="s9" d="m1053.7 2204.8l208.1 0.1 1.6-84.2-208.3-0.1z"/>
							<path fill-rule="evenodd" class="s10" d="m820.4 2204.6l207.9 0.2 1.4-84.2-208.1-0.1z"/>
							<path fill-rule="evenodd" class="s11" d="m587.4 2204.4l207.7 0.2 1.2-84.2-207.9-0.1z"/>
						</g>
						<g>
							<path fill-rule="evenodd" class="s12" d="m1051.1 2355.9l207.7 0.2 1.7-83.9-208-0.2z"/>
							<path fill-rule="evenodd" class="s13" d="m818.2 2355.6l207.6 0.2 1.4-83.8-207.7-0.2z"/>
							<path fill-rule="evenodd" class="s14" d="m585.6 2355.3l207.4 0.3 1.1-83.9-207.5-0.2z"/>
						</g>
						<g>
							<path fill-rule="evenodd" class="s15" d="m1048.5 2506.5l207.4 0.3 1.6-83.7-207.6-0.2z"/>
							<path fill-rule="evenodd" class="s16" d="m816.1 2506.1l207.1 0.3 1.4-83.6-207.3-0.2z"/>
							<path fill-rule="evenodd" class="s17" d="m583.9 2505.8l206.9 0.3 1.2-83.6-207.2-0.2z"/>
						</g>
						<g>
							<path fill-rule="evenodd" class="s18" d="m1045.9 2656.5l207 0.4 1.7-83.4-207.2-0.3z"/>
							<path fill-rule="evenodd" class="s19" d="m813.9 2656.1l206.8 0.4 1.4-83.3-207-0.4z"/>
							<path fill-rule="evenodd" class="s20" d="m582.1 2655.7l206.6 0.3 1.2-83.2-206.8-0.3z"/>
						</g>
						<g>
							<path fill-rule="evenodd" class="s21" d="m1043.4 2806.1l206.6 0.4 1.6-83.1-206.8-0.4z"/>
							<path fill-rule="evenodd" class="s22" d="m811.7 2805.6l206.5 0.4 1.4-83-206.7-0.4z"/>
							<path fill-rule="evenodd" class="s23" d="m580.3 2805.1l206.3 0.4 1.1-83-206.4-0.4z"/>
						</g>
						<g>
							<path fill-rule="evenodd" class="s24" d="m1040.8 2955.1l206.3 0.5 1.6-82.8-206.5-0.5z"/>
							<path fill-rule="evenodd" class="s25" d="m809.6 2954.5l206.1 0.5 1.4-82.7-206.3-0.5z"/>
							<path fill-rule="evenodd" class="s26" d="m578.6 2953.9l205.9 0.6 1.1-82.7-206.1-0.5z"/>
						</g>
						<g>
							<path fill-rule="evenodd" class="s27" d="m1038.3 3103.6l205.9 0.6 1.6-82.5-206.1-0.5z"/>
							<path fill-rule="evenodd" class="s28" d="m807.4 3103l205.8 0.5 1.4-82.4-206-0.5z"/>
							<path fill-rule="evenodd" class="s29" d="m576.8 3102.3l205.5 0.6 1.2-82.4-205.7-0.5z"/>
						</g>
					</g>
				</g>
				<g>
					<path class="s1" d="m2432.4 1797.4c0.4-15.4 16.2-28.1 35.6-28.1h733c19.7 0 39 13.4 39 29v1395.9c0 7.5-5.4 14.7-12.1 20-6.7 5.3-16.7 8.3-26.1 8.3l-766.4-1.7c-9.6 0-18.9-3.1-25.6-8.5-6.6-5.4-10.4-12.9-10.2-20.5z"/>
					<g style="opacity: .5">
						<g>
							<path fill-rule="evenodd" class="s2" d="m2972.3 1933.8l208.8-0.2 1.7-85.1h-209.1z"/>
							<path fill-rule="evenodd" class="s2" d="m2738.2 1933.8l208.6-0.3 1.5-85h-208.9z"/>
							<path fill-rule="evenodd" class="s2" d="m2504.4 1933.7l208.4-0.2 1.2-85h-208.6z"/>
						</g>
						<g>
							<path fill-rule="evenodd" class="s2" d="m2969.7 2086.5l208.4 0.1 1.7-84.5-208.7-0.1z"/>
							<path fill-rule="evenodd" class="s2" d="m2736 2086.4l208.3 0.1 1.4-84.5-208.5-0.1z"/>
							<path fill-rule="evenodd" class="s2" d="m2502.6 2086.2l208 0.2 1.2-84.5h-208.2z"/>
						</g>
						<g>
							<path fill-rule="evenodd" class="s2" d="m2967.1 2238.1l208.1 0.2 1.6-84.2-208.3-0.2z"/>
							<path fill-rule="evenodd" class="s2" d="m2733.8 2237.9l207.9 0.2 1.4-84.2-208.1-0.1z"/>
							<path fill-rule="evenodd" class="s2" d="m2500.8 2237.7l207.7 0.2 1.2-84.1-207.9-0.2z"/>
						</g>
						<g>
							<path fill-rule="evenodd" class="s2" d="m2964.5 2389.2l207.7 0.3 1.6-84-207.9-0.2z"/>
							<path fill-rule="evenodd" class="s2" d="m2731.6 2388.9l207.6 0.3 1.4-83.9-207.8-0.2z"/>
							<path fill-rule="evenodd" class="s2" d="m2499 2388.7l207.3 0.2 1.2-83.8-207.5-0.2z"/>
						</g>
						<g>
							<path fill-rule="evenodd" class="s2" d="m2961.9 2539.8l207.4 0.3 1.6-83.6-207.6-0.3z"/>
							<path fill-rule="evenodd" class="s2" d="m2729.5 2539.4l207.1 0.3 1.4-83.5-207.3-0.3z"/>
							<path fill-rule="evenodd" class="s2" d="m2497.2 2539.1l207 0.3 1.2-83.5-207.2-0.3z"/>
						</g>
						<g>
							<path fill-rule="evenodd" class="s2" d="m2959.3 2689.8l207 0.4 1.7-83.3-207.3-0.4z"/>
							<path fill-rule="evenodd" class="s2" d="m2727.3 2689.4l206.8 0.4 1.4-83.3-207-0.3z"/>
							<path fill-rule="evenodd" class="s2" d="m2495.5 2689l206.6 0.4 1.2-83.3-206.8-0.3z"/>
						</g>
						<g>
							<path fill-rule="evenodd" class="s2" d="m2956.8 2839.4l206.6 0.4 1.6-83-206.8-0.4z"/>
							<path fill-rule="evenodd" class="s2" d="m2725.1 2838.9l206.5 0.4 1.4-83-206.7-0.4z"/>
							<path fill-rule="evenodd" class="s2" d="m2493.7 2838.4l206.3 0.4 1.1-82.9-206.4-0.4z"/>
						</g>
						<g>
							<path fill-rule="evenodd" class="s2" d="m2954.2 2988.4l206.3 0.5 1.6-82.7-206.5-0.5z"/>
							<path fill-rule="evenodd" class="s2" d="m2723 2987.8l206.1 0.6 1.3-82.8-206.2-0.4z"/>
							<path fill-rule="evenodd" class="s2" d="m2491.9 2987.3l205.9 0.5 1.2-82.7-206.1-0.5z"/>
						</g>
						<g>
							<path fill-rule="evenodd" class="s2" d="m2951.7 3136.9l205.9 0.6 1.6-82.5-206.1-0.5z"/>
							<path fill-rule="evenodd" class="s2" d="m2720.8 3136.3l205.7 0.6 1.4-82.5-205.9-0.5z"/>
							<path fill-rule="evenodd" class="s2" d="m2490.2 3135.7l205.5 0.5 1.2-82.4-205.7-0.5z"/>
						</g>
					</g>
				</g>
			</g>
			<g>
				<g>
					<path class="s30" d="m1703.7 2177.1c-59.8-187.8-175.5-337.5-312.6-425.5-122.6-78.6-210.9-201.2-243.6-342.7q-5.1-22.3-12.3-44.7c-71.9-225.9-269.2-364.7-440.7-310.1-171.5 54.6-252.2 282-180.2 507.9 14.7 46.2 34.6 88.7 58.5 126.7 76.3 121.3 106.2 266.7 78.1 407.3-25.1 125.7-18.3 267.2 26.6 408 66.9 210 203.7 372.4 362.1 454.1 59.9 30.9 113.9 72.5 158.7 122.7 74.3 83.5 179.1 122.7 275.4 92.1 103.9-33.1 168.7-138.3 173.4-261 2.7-69.4 19-137.5 45.6-201.8 62.8-151.9 71.5-343.1 11-533z"/>
					<path class="s31" d="m831.1 1275.3c69.9 142.1 135.2 286.4 199 431.4 16 36.3 31.3 72.7 46.8 109.2l23.3 54.6 22.7 54.9c15.1 36.6 30.6 73.1 45.3 109.9l43.8 110.4c28.3 73.9 57.3 147.7 84.2 222.2 13.5 37.2 27.8 74.2 40.5 111.7l38.8 112.3c50.2 150.3 96.6 301.9 135.2 455.5l-6.6 1.8-33.3-113.9-8.3-28.5-8.9-28.2-18.1-56.5-17.9-56.5c-6-18.9-12.6-37.5-18.9-56.3-12.8-37.4-25.2-74.9-38.3-112.2-53-149-108-297.3-166.2-444.5-29.6-73.3-58.6-146.9-88.7-220l-22.4-54.9-22.9-54.8c-15.3-36.5-30.5-73-46.2-109.3-30.6-72.9-61.7-145.7-93.5-218.2-31.3-72.6-63.4-145-95.6-217.2z"/>
				</g>
				<g>
					<path class="s32" d="m2204.2 1803.8c-28-205.1-120.4-380.9-245.8-496.8-112.2-103.6-181.2-246.3-189.5-398.6q-1.3-24.1-4.7-48.5c-33.6-246.7-212-426.1-398.5-400.7-186.4 25.4-310.3 246-276.7 492.7 6.9 50.5 19.8 98.1 37.6 141.7 56.9 139.2 61.6 295.1 7.5 435.4-48.4 125.5-66.8 273.1-45.8 426.9 31.2 229.4 143.1 422.1 291.6 535.3 56.2 42.9 104.4 95.7 141.5 155.7 61.7 99.9 162.6 159.4 267.3 145.2 112.9-15.4 198.6-112.4 225.4-238.5 15.2-71.4 44.2-138.8 83.2-200.5 91.9-145.8 135.2-341.9 106.9-549.3z"/>
					<path class="s31" d="m1466.8 712.8c46.6 159.7 88 320.8 127.7 482.3 10 40.4 19.3 80.9 28.7 121.4l14.1 60.8 13.7 60.8c8.9 40.7 18.4 81.1 26.8 121.9l25.5 122.1c15.9 81.7 32.5 163.2 46.8 245.1 7.3 41 15.3 81.8 21.7 122.9l19.9 123.2c24.7 164.5 45.4 329.8 57.6 495.7l-7.2 0.6-13.8-123.8-3.4-30.9-4.2-30.9-8.5-61.7-8.3-61.7c-2.8-20.6-6.3-41.1-9.4-61.6-6.4-41-12.6-82.1-19.3-123.1-27.9-163.7-58-327.1-91.5-489.8-17.4-81.2-34.1-162.6-52-243.7l-13.3-60.9-13.7-60.7c-9.2-40.6-18.4-81.1-28-121.5-18.4-81-37.5-161.9-57.2-242.6-19.3-80.8-39.3-161.5-59.6-242z"/>
				</g>
			</g>
			<g>
				<path class="s33" d="m3061.2 3213.7h-1627.6c-12.8 0-23.1-10.3-23.1-23.1v-2199.5c0-12.7 10.3-23 23.1-23h1627.6c12.7 0 23.1 10.3 23.1 23v2199.5c0 12.8-10.4 23.1-23.1 23.1z"/>
				<path class="s32" d="m2799.3 2917.9h-1107.4c-42 0-76-34.1-76-76v-1460.4c0-42 34-76 76-76h1107.4c42 0 76 34 76 76v1460.4c0 41.9-34 76-76 76z"/>
				<path class="s34" d="m2757.4 2805.7h-1022.6c-12.6 0-22.8-10.2-22.8-22.8v-1322c0-12.6 10.2-22.8 22.8-22.8h1022.6c12.6 0 22.8 10.2 22.8 22.8v1322c0 12.6-10.2 22.8-22.8 22.8z"/>
				<path fill-rule="evenodd" class="s35" d="m2244.3 1190.4c-27.6 0-50-22.4-50-50.1 0-27.7 22.4-50.1 50-50.1 27.7 0 50.1 22.4 50.1 50.1 0 27.7-22.4 50.1-50.1 50.1z"/>
				<path class="s36" d="m2567.8 1948.6l-644.2 10.7c-49 0.8-88.9 38.9-88.9 85.2v405.6c0 46.2 39.9 82.1 88.9 80.1l644.2-25.8c46.3-1.9 83.7-39.6 83.7-84.3v-392c0-44.7-37.4-80.3-83.7-79.5z"/>
				<path class="s37" d="m2600.4 1875.2c-19.5 0.3-35.3-14.7-35.3-33.6v-88.8c0-89.1-75.4-161.3-168.6-161l-209.9 0.6c-95.7 0.2-174.1 74.6-174.1 165.8v90.8c0 19.3-16.6 35.2-37.1 35.5-20.6 0.4-37.2-15.1-37.2-34.5v-91.1c0-130.1 112-235.9 248.4-235.9h209.9c132.5 0 239.2 102.8 239.2 229.1v88.5c0 18.9-15.8 34.3-35.3 34.6z"/>
				<path class="s38" d="m2350 2173.4c0-45.1-39.4-80.5-87.2-77.2-42.4 2.9-77.3 36.8-79.6 77.2-1.8 31.4 15.5 58.5 41.7 72.3 11.1 5.8 16.7 18.1 14.5 30.3l-18.4 103.2c-2.3 13.1 8.2 24.7 22.1 24.2l47.3-1.7c13.8-0.5 24.3-12.8 22-25.7l-18.4-102.2c-2.2-12.2 4.2-24.4 15.4-31 24.3-14.6 40.6-40.4 40.6-69.4z"/>
			</g>
			<g>
				<g>
					<path class="s39" d="m1056.2 3217.6c0-0.9-0.1-1.8-0.3-2.7-13.3-53-79.6-85.9-79.6-85.9l-26.3 2c-15.1 46.7-13.2 75.3-10.8 88.1q0.2 0.5 0.3 1c21.7 2 66.3 3.2 116.7-2.5z"/>
					<path class="s30" d="m939.5 3220.1c1.2 4.3 4.3 7.6 8.3 8.4 30.9 6.5 79.9 1.3 100.5-1.4 4.5-0.6 7.8-4.8 7.9-9.5-50.4 5.7-95 4.5-116.7 2.5z"/>
					<path class="s40" d="m939.4 3091.9l11.1 53.6c0.9 3.9 3.9 6.8 7.5 7.2 4.5 0.4 10.9 0.6 17.3-0.3 5.7-0.9 9.7-6.7 8.7-12.9l-7.7-47.6z"/>
					<path class="s30" d="m1170 3219.4c-29.1-0.8-44.1-4.2-51.8-7.4 0 2.9 0 5.9 0.1 8.9 0.1 3.3 2.5 5.8 5.4 5.8l159.4-1c5 0 8-5.9 5.8-10.6-20.9 1.7-74.1 5.6-118.9 4.3z"/>
					<path class="s41" d="m1288.9 3215.1c-0.2-0.4-0.4-0.8-0.6-1.2-14.1-19.6-49.9-58.8-120.7-75.8l-34-1c0 0-15.1 26.2-15.4 74.9 7.7 3.2 22.7 6.6 51.8 7.4 44.8 1.3 98-2.6 118.9-4.3z"/>
					<path class="s42" d="m1125.8 3087.2c0.5 2.5 7.6 40.6 10.3 55.3 0.7 3.6 3.4 6.1 6.7 6.3 5.8 0.3 15.2 0.4 23.2-1.8 4.4-1.2 7.3-5.6 7-10.6l-3.8-60.2z"/>
					<path class="s43" d="m1100 2383.4c0 0 46.8 321.1 80.5 703.2 0.6 7.1-5.1 13.3-12 14.8-10.3 2.2-25.5 4.7-38 4.4-6.7-0.2-12.3-5.2-13.4-11.8-11.5-67.3-93.5-428.9-115-508.5 0 0-24.7 338-16.8 513.4 0.2 4.4-3 8.2-7.4 8.7-6.5 0.7-17.1 1.3-30.5-0.1-5-0.6-9.1-4.4-9.9-9.5-8.1-57-55.2-396.4-53.2-640.9 0.1-13.7 16.1-127 16.1-127z"/>
				</g>
				<path class="s44" d="m1118.1 1843.4l6.3 168.1c17.8 6.1 34.7 10.8 50.8 14.4 10.1-32.5 32.3-72.3 50.4-101.9-66.7-23.6-107.5-80.6-107.5-80.6z"/>
				<path class="s45" d="m893.4 2401.9c-4.8-1.7-8.1-6.1-8.7-11.1-6.2-60.3-36.3-434.1 153.7-587.9 0 0 10.9-28.5 100.4 41.6 89.5 70 41.6 143.5 20.2 244.8-26 122.5-71.5 222.7-51.3 298.1 1.3 5.2-1.4 10.7-6.4 12.6-69.6 25.6-138.9 26.4-207.9 1.9z"/>
				<path class="s46" d="m1112.5 1690.9c-0.1 5.3-75.9 113.1-75.9 113.1 0 0 13.6 26.8 78.6 48.6l56.1-115.4z"/>
				<path class="s47" d="m1074.9 2059.6c-0.5 0-1-0.2-1.4-0.5-60.6-40.9-89.1-107-89.4-107.6-0.5-1.3 0.1-2.7 1.4-3.3 1.2-0.5 2.6 0.1 3.2 1.3 0.3 0.7 28.2 65.5 87.6 105.6 1.1 0.7 1.4 2.2 0.6 3.4-0.4 0.7-1.2 1.1-2 1.1z"/>
				<path class="s48" d="m1165.2 1968c-0.9 0-1.6-0.4-2.1-1.2-0.2-0.2-18.7-29.1-54-92.2-10.8-19.4-25.1-31.7-42.3-36.5-28.6-8-56.2 7.3-56.4 7.5-1.2 0.6-2.7 0.2-3.4-1-0.7-1.1-0.2-2.6 0.9-3.3 1.2-0.7 29.6-16.5 60.2-8 18.6 5.2 33.8 18.3 45.3 38.9 35.2 63 53.6 91.7 53.8 92 0.8 1.1 0.4 2.6-0.7 3.4q-0.6 0.4-1.3 0.4z"/>
				<g>
					<path class="s49" d="m1172.2 1629.2c0 0 27 62 28.8 94.5 1.8 32.6 8.8 53.7-28.8 60.2-37.6 6.6-69.3-12.2-86.5-44.6 0 0-26.9-49.9-20.9-70.4 6.1-20.4 107.4-39.7 107.4-39.7z"/>
					<path class="s50" d="m1098.6 1716l2.1-0.9c2.7-1.2 3.9-4.5 2.5-7.1-5.3-10.3-15.6-33.8-2.3-39.2 17.3-7.1 85.5-21 100.2-45.2 14.1-23.3 1.6-53.3-17.2-61.8-1.3-0.6-2.8-0.2-3.4 1.1l-1.6 2.9c-1.1 2.1-4.1 1.8-4.7-0.4-0.6-2.2-3.5-2.6-4.6-0.7-4.5 7.2-16.8 19-49.4 25-46.4 8.6-77.1 27.4-77.9 59.4 0 2.1-2.2 3.2-3.9 2.1-3.5-2.1-9-3-16.3 3.1-12.7 10.7-7.5 38.6 20.4 61.4 1.4 1.1 1.3 3.2-0.1 4.1-5.1 3.3-12.6 11.2 7 21.6 20.2 10.8 35.3 10 41.1 9 1.5-0.2 2.4-1.6 2.1-3.1l-6.2-28.2c-0.4-1.6 0.8-3.1 2.5-3.1 0 0 9.7 0 9.7 0z"/>
					<path class="s51" d="m1099.7 1722c0 0-10.3-39.6-28-28.5-17.8 11.1 9.2 44.3 23.5 45.8z"/>
				</g>
				<path class="s52" d="m1449.2 1830.8c0 0-13.5-24-12.7-35.6 0.9-11.7-6.4-28.8 1.4-27.5 7.7 1.2 9.3 0.2 11.4 14.2 2.1 14 26.5 75-0.1 48.9z"/>
				<path class="s53" d="m1451.7 1792.7l-0.3 47.9c-91.5 98.8-165.7 104.7-225.8 83.4-18.1 29.6-40.3 69.4-50.4 101.9 244.5 53.9 302.1-170.9 302.1-170.9 33.1-13.7 39.8-21.8 38.4-30.8z"/>
				<path class="s54" d="m1522.2 1745.1c-7.9-3.1-23.1-32.3-26.1-22.7-2.9 9.6 1.3 22.7 0 26.8-1.2 4.1-20.3 51-16.5 61.4 2.8 7.6 17.9 6.4 20.2 18.8 0.8 4 4.1 7 7.8 7 3.8 0 7.1-3 7.9-7 0.3-1.7 14.5-81.1 6.7-84.3z"/>
				<g>
					<path class="s55" d="m1272.6 1645.3c-61.8 122.2-12.8 271.2 109.3 333 99.3 50.2 216.3 27.2 289.8-48.7l424.3 214.5c7.1 3.6 15.5 3.3 22.3-0.7l41.5-24.8q1-0.6 2-1.3 0.3-0.2 0.5-0.5 0.8-0.5 1.4-1.2 0.3-0.2 0.5-0.4 0.8-0.8 1.5-1.7 0.1 0 0.1 0c5.2-6.4 6.8-15.2 3.6-23.2l-33.7-84.6c-2.1-5.2-6-9.5-11.1-12l-42.5-21.5-11.2 22.3-36.5-18.5 11.2-22.2-34.1-17.3-10.4 20.4-44.4-22.4 10.4-20.5-16.5-8.3-5.4 10.5-37.2-18.8 5.4-10.5-29-14.6-11.2 22.2-20.7-10.5 11.3-22.2-17.9-9.1-11.3 22.3-35.8-18.1 11.2-22.3-50.3-25.4-21.6-10.9c17.6-104.2-33.3-212.1-132.6-262.3-122.1-61.7-271.2-12.8-332.9 109.3zm144.5 16.9c24.8 12.5 34.7 42.7 22.2 67.4-12.5 24.8-42.7 34.7-67.4 22.2-24.8-12.5-34.7-42.7-22.2-67.5 12.5-24.7 42.7-34.6 67.4-22.1z"/>
					<path class="s56" d="m1616.5 1720.2l201.2 101.7-11.3 22.2 35.8 18.1 11.3-22.2 17.9 9.1-11.2 22.2 20.6 10.4 11.3-22.2 28.9 14.6-5.3 10.6 37.2 18.8 5.3-10.6 16.5 8.4-10.3 20.5 44.4 22.4 10.3-20.5 34.2 17.3-11.3 22.2 36.5 18.5 11.3-22.2 42.5 21.5c5 2.5 8.9 6.8 11 12l33.7 84.5c4.2 10.6 0.1 22.6-9.6 28.4l-41.5 24.7c-6.8 4.1-15.2 4.3-22.2 0.8l-512.3-259z"/>
					<path class="s57" d="m1389.5 1965.5c122.2 61.8 271.2 12.8 333-109.3 61.7-122.1 12.8-271.2-109.4-332.9-122.1-61.8-271.2-12.8-332.9 109.3-61.7 122.1-12.8 271.2 109.3 332.9zm-10-226.5c-24.7-12.5-34.6-42.7-22.1-67.4 12.5-24.7 42.6-34.6 67.4-22.1 24.7 12.5 34.6 42.6 22.1 67.4-12.5 24.7-42.7 34.6-67.4 22.1z"/>
					<path class="s58" d="m1679.4 1916.8l424.3 214.6c7 3.5 15.4 3.3 22.2-0.8l41.5-24.7c6.3-3.7 10.1-10 11-16.9-38.6-41.9-406.3-202.4-420-235.4-4.9-11.8-5.7-29.6 8.9-57.2l-21.5-10.9c17.5-104.2-33.4-212.1-132.7-262.2-122.1-61.8-271.2-12.8-332.9 109.3-61.7 122.1-12.8 271.2 109.3 332.9 99.3 50.2 216.3 27.3 289.9-48.7zm-254.6-267.3c24.7 12.5 34.6 42.6 22.1 67.4-12.5 24.7-42.7 34.6-67.4 22.1-24.7-12.5-34.6-42.7-22.1-67.4 12.5-24.7 42.6-34.6 67.4-22.1z"/>
					<path class="s59" d="m1411.5 1922.1c98.1 49.7 217.9 10.3 267.6-87.8 49.6-98.2 10.3-218-87.9-267.6-98.2-49.7-218-10.3-267.6 87.8-49.6 98.2-10.3 218 87.9 267.6zm-32-183.1c-24.7-12.5-34.6-42.7-22.1-67.4 12.5-24.7 42.6-34.6 67.4-22.1 24.7 12.5 34.6 42.6 22.1 67.4-12.5 24.7-42.7 34.6-67.4 22.1z"/>
				</g>
				<path class="s60" d="m1074.9 2059.6c0 0 233.3 78.1 363.9-21.3 8.1-6.2 18.3-8.8 28.3-7.2l49.9 8.1c20.9 3.4 40.9-10.1 45.4-30.9 2.5-11.8 3.8-24.7 1.2-35.8l-94.2-5.7 2.7-12.2c0 0-41.6 10.2-42.4 42.7 0 0-97.6 64-275.6-35.3 0 0-69.3 54.3-79.2 97.6z"/>
			</g>
			<g>
				<g>
					<g style="opacity: .3">
						<path class="s30" d="m2877.2 889.7c-5.4-0.3-9.6-4.8-9.4-10.3 0.4-10.5 0.4-21.3 0-31.9-0.3-5.3 3.8-9.9 9.2-10.2q0.1 0 0.2 0c5.4-0.3 10 3.9 10.2 9.4 0.5 11.1 0.5 22.4 0.1 33.5-0.2 5.1-4.3 9.1-9.2 9.5q-0.5 0-1.1 0zm-15.3-93.7c-1.9-10.4-4.3-20.9-7-31.1-1.5-5.2 1.6-10.6 6.9-12 5.2-1.5 10.6 1.6 12 6.9 3 10.7 5.5 21.7 7.5 32.7 1 5.3-2.6 10.5-7.9 11.4q-0.6 0.2-1.2 0.2c-4.9 0.3-9.4-3.1-10.3-8.1zm-24.1-79.9c-4.2-9.8-8.8-19.4-13.8-28.8-2.6-4.8-0.8-10.7 4-13.3 4.8-2.6 10.8-0.8 13.3 4 5.3 9.9 10.2 20 14.6 30.3 2.1 5-0.2 10.8-5.2 12.9q-1.6 0.7-3.2 0.8c-4.1 0.3-8-2-9.7-5.9zm-41.4-72.6c-6.3-8.6-13-17-19.9-25-3.6-4.1-3.2-10.3 0.9-13.8 4.1-3.6 10.3-3.2 13.9 0.9 7.3 8.4 14.4 17.2 21 26.3 3.2 4.3 2.2 10.5-2.2 13.7-1.5 1.2-3.3 1.8-5.1 1.9-3.3 0.2-6.6-1.2-8.6-4zm-56.6-61.6c-7.9-6.9-16.3-13.6-24.9-19.9-4.4-3.2-5.3-9.3-2.1-13.7 3.2-4.4 9.3-5.4 13.7-2.2 9 6.6 17.9 13.7 26.3 21 4.1 3.5 4.5 9.8 0.9 13.9-1.8 2-4.2 3.2-6.8 3.3-2.5 0.2-5-0.6-7.1-2.4zm-68.7-47.5c-9.4-5-19-9.7-28.7-13.9-5-2.1-7.3-7.9-5.2-12.9 2.2-5 8-7.3 13-5.1 10.2 4.4 20.4 9.3 30.2 14.6 4.8 2.6 6.6 8.5 4 13.3-1.7 3.1-4.8 5-8.1 5.2-1.7 0.1-3.5-0.3-5.2-1.2zm-365.6-4.6c-2.6-4.8-0.7-10.7 4.1-13.3 9.8-5.2 20-10.1 30.2-14.5 5-2.1 10.8 0.2 13 5.2 2.1 5-0.2 10.8-5.2 12.9-9.8 4.2-19.5 8.8-28.8 13.8-1.3 0.7-2.6 1.1-4 1.1-3.7 0.3-7.4-1.6-9.3-5.2zm288-26.4c-10.2-2.8-20.6-5.2-31-7.2-5.4-1-8.9-6.1-7.9-11.4 1-5.4 6.1-8.9 11.5-7.9 10.9 2 21.9 4.5 32.7 7.5 5.2 1.4 8.3 6.8 6.8 12.1-1.1 4.1-4.7 6.9-8.8 7.2q-1.6 0.1-3.3-0.3zm-209.1-7.2c-1.4-5.2 1.7-10.6 7-12.1 10.7-2.9 21.7-5.3 32.7-7.3 5.4-1 10.5 2.5 11.5 7.9 0.9 5.3-2.6 10.5-8 11.4-10.4 1.9-20.9 4.3-31.1 7q-1 0.3-1.9 0.4c-4.6 0.3-8.9-2.7-10.2-7.3zm126.6-5.8c-10.5-0.4-21.3-0.4-31.9 0-5.4 0.2-10-4-10.2-9.4-0.2-5.4 3.9-9.9 9.2-10.3q0.1 0 0.2 0c11.2-0.4 22.5-0.4 33.6 0 5.4 0.3 9.6 4.9 9.4 10.3-0.2 5.1-4.3 9.1-9.2 9.4q-0.5 0-1.1 0z"/>
						<path class="s30" d="m2257 573c1.9-0.2 3.9-0.9 5.5-2.2 4-3.1 8.1-6.2 12.2-9.3 4.4-3.2 5.4-9.3 2.1-13.7-3.2-4.4-9.3-5.4-13.7-2.2-4.3 3.2-8.7 6.5-12.9 9.8-4.2 3.4-4.9 9.6-1.5 13.8 2 2.7 5.2 4 8.3 3.8z"/>
					</g>
					<g style="opacity: .3">
						<path class="s30" d="m2113.5 836.6c4.7-0.3 8.7-4 9.1-8.9 0.5-5.1 1.1-10.2 1.8-15.2 0.8-5.4-3-10.4-8.4-11.1-5.4-0.8-10.4 3-11.1 8.4-0.7 5.3-1.4 10.7-1.9 16-0.5 5.4 3.5 10.2 8.9 10.8q0.8 0 1.6 0z"/>
						<path class="s30" d="m2499.7 1256.9c-5.5 0.1-9.9-4.3-10-9.7-0.1-5.5 4.3-9.9 9.7-10 10.4-0.1 20.9-0.7 31.3-1.8 5.4-0.5 10.3 3.5 10.8 8.9 0.5 5.4-3.4 10.2-8.8 10.7q-6.9 0.7-13.6 1.1c-6.5 0.4-13 0.7-19.4 0.8zm74-18c-1.2-5.3 2-10.6 7.3-11.8 10.2-2.4 20.4-5.3 30.3-8.5 5.1-1.7 10.7 1.1 12.4 6.3 1.7 5.1-1.2 10.7-6.3 12.4-10.4 3.4-21.1 6.4-31.8 8.9q-0.9 0.2-1.7 0.3c-4.7 0.3-9-2.8-10.2-7.6zm-127.6 15.1c-10.9-1.4-21.8-3.2-32.6-5.4-5.3-1.2-8.7-6.4-7.6-11.7 1.1-5.3 6.4-8.7 11.7-7.6 10.2 2.1 20.6 3.9 30.9 5.1 5.4 0.7 9.3 5.6 8.6 11-0.6 4.8-4.5 8.3-9.1 8.6q-1 0.1-1.9 0zm207.9-41.4c-2.4-4.9-0.4-10.8 4.5-13.2 9.3-4.6 18.6-9.6 27.6-14.9 4.6-2.8 10.7-1.3 13.5 3.4 2.8 4.6 1.2 10.7-3.4 13.5-9.4 5.6-19.2 10.9-29.1 15.7-1.2 0.6-2.4 0.9-3.7 1-3.8 0.2-7.6-1.8-9.4-5.5zm-292.1 21.3c-10.3-3.7-20.5-7.8-30.5-12.4-5-2.3-7.2-8.1-4.9-13.1 2.3-4.9 8.1-7.1 13-4.8 9.5 4.3 19.3 8.3 29.1 11.8 5.1 1.8 7.8 7.5 5.9 12.6-1.3 3.8-4.8 6.3-8.6 6.5-1.3 0.1-2.7-0.1-4-0.6zm-77.7-38c-9.3-5.8-18.4-12.2-27.1-18.8-4.4-3.3-5.2-9.5-1.9-13.8 3.3-4.3 9.4-5.2 13.8-1.9 8.3 6.3 16.9 12.3 25.8 17.9 4.5 2.9 5.9 9 3 13.6-1.8 2.8-4.7 4.3-7.7 4.5-2 0.2-4.1-0.3-5.9-1.5zm-67.6-54c-7.8-7.8-15.3-16-22.4-24.3-3.5-4.2-3-10.4 1.2-13.9 4.1-3.5 10.3-3 13.8 1.2 6.8 7.9 13.9 15.7 21.3 23 3.9 3.9 3.9 10.1 0 14-1.7 1.7-4 2.7-6.3 2.8-2.7 0.2-5.5-0.7-7.6-2.8zm-54.2-67.5c-5.9-9.3-11.4-18.9-16.5-28.7-2.5-4.8-0.7-10.7 4.2-13.2 4.8-2.6 10.7-0.7 13.2 4.1 4.9 9.3 10.1 18.4 15.7 27.2 2.9 4.6 1.6 10.7-3 13.6-1.4 0.9-3 1.4-4.6 1.5-3.5 0.2-7-1.4-9-4.5zm-38-77.8c-3.7-10.4-7-21-9.9-31.6-1.4-5.2 1.8-10.6 7-12 5.3-1.4 10.7 1.7 12.1 7 2.6 10 5.8 20.1 9.3 29.9 1.8 5.1-0.8 10.8-6 12.6q-1.3 0.5-2.7 0.6c-4.2 0.2-8.3-2.3-9.8-6.5zm-20.1-84.2c-1-8-1.7-16.2-2.3-24.2q-0.2-4.4-0.4-8.7c-0.2-5.5 3.9-10.2 9.4-10.3 5.4-0.2 10 4 10.3 9.4q0.1 4.2 0.4 8.3c0.5 7.7 1.2 15.4 2.2 23 0.6 5.4-3.2 10.3-8.6 11q-0.3 0.1-0.6 0.1c-5.1 0.3-9.7-3.4-10.4-8.6z"/>
						<path class="s30" d="m2734.9 1172.7c2-0.1 3.9-0.8 5.5-2.1 4.2-3.4 8.4-6.8 12.4-10.4 4.1-3.6 4.5-9.8 1-13.9-3.6-4.1-9.8-4.5-13.9-0.9-3.9 3.3-7.8 6.7-11.8 9.8-4.2 3.4-4.9 9.6-1.5 13.9 2.1 2.6 5.2 3.8 8.3 3.6z"/>
					</g>
					<g>
						<path class="s30" d="m2753.5 1005c1.1-1.6 1.2-3.8 0-5.4l-32.4-45.6c9.9-24.2 16.1-50.2 17.9-77l49.2-26.7c1.7-0.9 2.7-2.8 2.4-4.8l-11-66.2c-0.3-2-1.9-3.5-3.8-3.8l-55.2-9.4c-10.3-24.8-24.6-47.4-41.8-67l16-53.7c0.5-1.9-0.2-3.9-1.8-5.1l-54.6-39.1c-1.6-1.1-3.7-1.1-5.3 0l-45.7 32.5c-24.2-10-50.1-16.2-77-18l-26.6-49.2c-1-1.7-2.9-2.7-4.8-2.3l-66.3 11c-1.9 0.3-3.5 1.8-3.8 3.7l-9.3 55.2c-24.9 10.4-47.4 24.6-67.1 41.8l-53.7-15.9c-1.9-0.6-3.9 0.1-5.1 1.7l-39 54.6c-1.2 1.6-1.2 3.8-0.1 5.4l32.5 45.6c-10 24.2-16.2 50.2-17.9 77l-49.2 26.7c-1.8 0.9-2.7 2.8-2.4 4.8l11 66.2c0.3 2 1.8 3.5 3.8 3.8l55.1 9.4c10.4 24.8 24.6 47.4 41.9 67l-16 53.7c-0.6 1.9 0.1 3.9 1.7 5.1l54.7 39.1c1.6 1.1 3.7 1.1 5.3 0l45.7-32.5c24.1 10 50.1 16.2 76.9 18l26.7 49.2c0.9 1.7 2.9 2.6 4.8 2.3l66.3-11c1.9-0.3 3.4-1.8 3.8-3.7l9.3-55.2c24.9-10.4 47.4-24.6 67.1-41.8l53.7 15.9c1.8 0.6 3.9-0.1 5-1.7z"/>
						<g>
							<path class="s1" d="m2488.5 927.9c-37.1-3-64.8-35.7-61.7-72.8 1.5-18 9.9-34.3 23.7-46 13.7-11.6 31.2-17.2 49.2-15.7 37.1 3 64.8 35.7 61.7 72.8-2.8 33.8-30.1 59.8-63 61.8q-4.9 0.4-9.9-0.1zm-27.9-106.8c-10.5 9-17 21.5-18.1 35.3-2.4 28.4 18.8 53.5 47.3 55.8 28.5 2.4 53.5-18.8 55.9-47.3 2.3-28.4-18.9-53.5-47.3-55.8q-3.9-0.4-7.7-0.1c-11 0.7-21.5 4.9-30.1 12.1z"/>
						</g>
						<g>
							<path class="s1" d="m2503.2 1025.5q8.5-0.6 17-2 2.6-0.4 5.3-0.9c8.7-1.8 17.3-4.2 25.6-7.3q0.1-0.1 0.3-0.1 0.5-0.2 1-0.4 0.9-0.3 1.8-0.7c1.7-0.6 2.6-2.3 2.5-3.9q0-0.6-0.3-1.2c-0.8-2-3-3-5.1-2.2-10.4 4.1-21.3 7.1-32.4 9-55.3 9.1-108.8-11.7-143.7-50.6-19.4-21.6-33.1-48.8-38.2-79.6q-1.4-8.1-1.9-16.2c-2.3-36.2 7.9-71.8 29.3-101.7 24.5-34.4 61-57.1 102.7-64 86.1-14.3 167.7 44.1 181.9 130.1q1.3 8 1.8 16c1.5 23.1-2.1 46.3-10.6 67.8q-0.3 0.9-0.3 1.7c0.1 1.5 1 2.9 2.5 3.4 2 0.8 4.3-0.1 5.1-2.2 8.9-22.6 12.7-46.9 11.2-71.2q-0.5-8.4-1.9-16.7c-15-90.4-100.7-151.6-191-136.7-43.7 7.3-82 31.1-107.8 67.2-22.5 31.4-33.2 68.8-30.8 106.8q0.6 8.5 2 17c7.2 43.7 31.1 82.1 67.2 107.9 31.4 22.4 68.8 33.1 106.8 30.7z"/>
						</g>
					</g>
				</g>
				<g>
					<g style="opacity: .3">
						<path class="s30" d="m3230 1127.3c2.6-0.2 5-2 5.6-4.7 1.1-5.1 2.1-10.2 2.9-15.3 0.6-3.3-1.7-6.4-5-7-3.3-0.5-6.4 1.7-7 5-0.8 4.9-1.7 9.8-2.8 14.6-0.7 3.3 1.3 6.5 4.6 7.3q0.9 0.2 1.7 0.1z"/>
						<path class="s30" d="m3235.5 1080.9c-3.4-0.1-6-2.9-5.9-6.3 0.3-8.5 0.2-17-0.3-25.5q-0.2-2.7-0.4-5.4c-0.3-3.3 2.2-6.2 5.6-6.5 3.1-0.2 6.2 2.2 6.5 5.5q0.3 2.8 0.4 5.6c0.6 8.9 0.7 17.9 0.4 26.8-0.1 3.1-2.6 5.6-5.7 5.8q-0.3 0-0.6 0zm-11.1-67.7c-2.1-10.1-4.8-20.1-8.1-29.8-1.1-3.2 0.6-6.6 3.8-7.7 3.1-1.1 6.6 0.6 7.7 3.8 3.4 10.1 6.3 20.6 8.5 31.2 0.7 3.3-1.4 6.5-4.7 7.2q-0.4 0.1-0.8 0.1c-3 0.2-5.7-1.8-6.4-4.8zm-19.9-58.3c-4.5-9.3-9.6-18.3-15.3-26.9-1.8-2.8-1-6.6 1.8-8.4 2.8-1.9 6.6-1.1 8.4 1.8 5.9 9 11.3 18.5 16 28.1 1.5 3 0.2 6.7-2.8 8.2q-1.1 0.5-2.3 0.6c-2.4 0.1-4.7-1.2-5.8-3.4zm-33.7-51.7c-6.6-7.8-13.8-15.3-21.3-22.3-2.5-2.3-2.7-6.1-0.4-8.6 2.3-2.4 6.1-2.6 8.6-0.3 7.9 7.3 15.4 15.1 22.4 23.4 2.2 2.5 1.8 6.4-0.7 8.6-1.1 0.8-2.3 1.3-3.6 1.4-1.8 0.1-3.7-0.6-5-2.2zm-45.3-41.8c-8.3-6-17.1-11.6-26.1-16.5-2.9-1.6-4-5.3-2.4-8.2 1.6-3 5.3-4.1 8.3-2.4 9.4 5.1 18.6 10.9 27.3 17.2 2.8 2 3.4 5.8 1.4 8.5-1.1 1.5-2.8 2.4-4.5 2.5-1.4 0.1-2.8-0.3-4-1.1zm-54-29.6c-9.5-3.8-19.4-7-29.3-9.6-3.3-0.8-5.2-4.2-4.4-7.4 0.9-3.3 4.2-5.2 7.4-4.4 10.4 2.7 20.8 6.1 30.8 10.1 3.1 1.2 4.6 4.8 3.4 7.9-0.9 2.2-3 3.7-5.3 3.8-0.8 0.1-1.7-0.1-2.6-0.4zm-59.6-15.5c-10.2-1.3-20.5-2-30.8-2.1-3.4 0-6.1-2.7-6.1-6.1 0.1-3.4 2.8-6 6.2-6 10.7 0 21.6 0.8 32.2 2.2 3.4 0.4 5.7 3.4 5.3 6.8-0.4 2.9-2.8 5.1-5.6 5.3q-0.6 0-1.2-0.1zm-99.4 0.6c-0.8-3.2 1.2-6.5 4.5-7.3 9-2.2 18.3-4 27.6-5.2q2.1-0.3 4.2-0.5c3.3-0.5 6.4 2 6.8 5.3 0.4 3.3-2 6.4-5.4 6.7q-1.9 0.3-4 0.6c-8.9 1.1-17.7 2.8-26.4 4.9q-0.5 0.1-1 0.2c-2.9 0.1-5.6-1.8-6.3-4.7z"/>
					</g>
					<g style="opacity: .3">
						<path class="s30" d="m2992.3 1327c-10.6 0.6-21.3 0.5-31.8-0.3-3.4-0.2-5.9-3.1-5.7-6.5 0.3-3.3 3.2-5.8 6.5-5.6 10.1 0.7 20.3 0.8 30.4 0.3 3.3-0.2 6.2 2.4 6.4 5.8 0.1 3.3-2.4 6.1-5.7 6.3q-0.1 0-0.1 0zm24.6-8.4c-0.5-3.3 1.7-6.5 5-7.1 9.9-1.7 19.9-4 29.6-6.9 3.2-0.9 6.6 0.9 7.5 4.1 1 3.2-0.8 6.6-4 7.6-10.2 3-20.6 5.4-31 7.2q-0.4 0.1-0.7 0.1c-3.1 0.2-5.8-1.9-6.4-5zm-88 3.9c-10.4-2-20.8-4.7-30.8-8-3.2-1-5-4.4-3.9-7.6 1-3.2 4.4-5 7.6-3.9 9.6 3.1 19.5 5.7 29.4 7.6 3.3 0.7 5.5 3.9 4.8 7.1-0.5 2.8-2.9 4.8-5.6 4.9q-0.7 0.1-1.5-0.1zm148-20.3c-1.4-3.1 0-6.7 3.1-8.1 9.2-4 18.3-8.7 27-13.8 2.9-1.7 6.6-0.8 8.3 2.1 1.7 2.9 0.8 6.6-2.1 8.3-9.1 5.4-18.6 10.3-28.3 14.6q-1 0.4-2.1 0.5c-2.5 0.1-4.9-1.2-5.9-3.6zm-208.4 0.6c-9.6-4.4-19-9.5-28-15.1-2.9-1.8-3.7-5.6-2-8.4 1.8-2.9 5.6-3.7 8.4-2 8.6 5.4 17.6 10.3 26.7 14.5 3.1 1.4 4.4 5.1 2.9 8.1-0.9 2.1-2.9 3.4-5.1 3.5-1 0.1-2-0.1-2.9-0.6zm-54-33.6c-8.2-6.6-16.2-13.8-23.5-21.4-2.4-2.4-2.3-6.3 0.1-8.6 2.4-2.3 6.2-2.3 8.6 0.1 7 7.2 14.6 14.1 22.5 20.5 2.6 2.1 3 5.9 0.9 8.5-1.1 1.4-2.7 2.2-4.4 2.3-1.4 0.1-2.9-0.4-4.2-1.4zm-44.3-45.5c-6.4-8.5-12.4-17.4-17.7-26.5-1.7-2.9-0.8-6.6 2.1-8.3 2.9-1.7 6.7-0.7 8.4 2.1 5 8.8 10.7 17.2 16.9 25.3 2 2.7 1.5 6.5-1.2 8.5-1 0.8-2.1 1.2-3.3 1.2-1.9 0.2-3.9-0.7-5.2-2.3z"/>
						<path class="s30" d="m3136.5 1273.9c1.1-0.1 2.3-0.5 3.3-1.2 4.1-3.2 8.2-6.5 12-9.9 2.5-2.2 2.8-6.1 0.6-8.6-2.2-2.5-6-2.8-8.6-0.6-3.7 3.2-7.5 6.4-11.4 9.4-2.7 2.1-3.2 5.9-1.1 8.6 1.3 1.6 3.2 2.4 5.2 2.3z"/>
					</g>
					<g>
						<path class="s30" d="m3152.6 1159.3c0.8-1.1 0.8-2.5 0-3.6l-21.7-30.5c6.7-16.2 10.8-33.6 12-51.6l32.9-17.8c1.2-0.6 1.8-1.9 1.6-3.2l-7.4-44.3c-0.2-1.3-1.2-2.4-2.5-2.6l-36.9-6.2c-6.9-16.7-16.4-31.8-28-44.9l10.7-35.9c0.4-1.3-0.1-2.7-1.2-3.4l-36.5-26.2c-1.1-0.7-2.5-0.7-3.6 0l-30.5 21.7c-16.2-6.7-33.6-10.8-51.6-12l-17.8-32.9c-0.6-1.2-1.9-1.8-3.2-1.6l-44.4 7.4c-1.2 0.2-2.3 1.2-2.5 2.5l-6.2 36.9c-16.7 7-31.8 16.5-44.9 28l-35.9-10.7c-1.3-0.3-2.7 0.1-3.4 1.2l-26.2 36.5c-0.7 1.1-0.7 2.5 0 3.6l21.7 30.6c-6.7 16.2-10.8 33.5-12 51.5l-32.9 17.8c-1.2 0.6-1.8 1.9-1.6 3.2l7.4 44.4c0.2 1.3 1.2 2.3 2.5 2.5l36.9 6.3c6.9 16.6 16.5 31.7 28 44.8l-10.7 36c-0.3 1.2 0.1 2.6 1.2 3.4l36.5 26.1c1.1 0.8 2.5 0.8 3.6 0l30.6-21.7c16.2 6.7 33.5 10.8 51.5 12l17.8 32.9c0.6 1.2 1.9 1.8 3.2 1.6l44.4-7.3c1.3-0.3 2.3-1.3 2.5-2.6l6.3-36.9c16.6-6.9 31.7-16.4 44.8-28l36 10.7c1.2 0.4 2.6-0.1 3.4-1.2z"/>
						<g>
							<path class="s1" d="m2975.2 1108.6c-12.2-1.1-23.4-6.8-31.3-16.2-7.9-9.3-11.7-21.2-10.7-33.5 2.1-25.3 24.3-44.1 49.6-42 25.3 2.1 44.2 24.4 42 49.6-1 12.3-6.7 23.4-16.1 31.3-7.6 6.5-16.9 10.2-26.7 10.8q-3.4 0.2-6.8 0zm-29.9-48.7c-0.8 9 2 17.8 7.9 24.7 5.8 6.9 14 11.1 23 11.8 9 0.8 17.8-2 24.7-7.9 6.9-5.8 11.1-14 11.8-23 1.6-18.6-12.3-35-30.9-36.5q-2.5-0.2-5-0.1c-16.4 1.1-30.1 14.1-31.5 31z"/>
						</g>
						<g>
							<path class="s1" d="m2985.5 1176.4q5.7-0.3 11.5-1.3c7.7-1.3 15.3-3.3 22.5-6.1q0.5-0.2 1-0.4c2.5-1 4-3.5 3.9-6q-0.1-1-0.5-1.9c-1.2-3.1-4.7-4.6-7.8-3.4-6.8 2.7-13.9 4.6-21.1 5.8q-0.6 0.1-1.1 0.2c-17.1 2.6-34.1 1-50-4.7-8.6-3.1-16.8-7.3-24.4-12.7q-0.1-0.1-0.2-0.1-0.3-0.2-0.6-0.4c-22.2-16-36.9-39.6-41.4-66.6q-0.9-5.2-1.2-10.4c-1.5-23.5 5.1-46.5 18.9-65.9 15.9-22.2 39.6-36.9 66.5-41.4 27-4.5 54.1 1.8 76.4 17.7 22.2 15.9 36.9 39.6 41.4 66.5q0.9 5.2 1.2 10.4c0.9 14.9-1.4 29.9-6.9 43.9q-0.5 1.3-0.4 2.6c0.1 2.3 1.5 4.4 3.8 5.3 3.1 1.2 6.7-0.3 7.9-3.5 6.2-15.6 8.8-32.3 7.7-49.1q-0.4-5.8-1.3-11.5c-5-30.2-21.5-56.7-46.4-74.5-24.8-17.8-55.2-24.8-85.4-19.8-30.1 5-56.6 21.5-74.4 46.3-15.5 21.7-22.8 47.5-21.2 73.7q0.4 5.9 1.4 11.7c9.7 58.5 62.3 99.3 120.2 95.6z"/>
						</g>
					</g>
				</g>
			</g>
		</g>
	</g>
</svg>