<svg width="263" height="13" viewBox="0 0 263 13" fill="none" xmlns="http://www.w3.org/2000/svg">
<path d="M8.988 5.836C8.988 6.516 8.876 7.128 8.652 7.672C8.428 8.208 8.128 8.664 7.752 9.04C7.376 9.408 6.94 9.692 6.444 9.892C5.948 10.084 5.428 10.18 4.884 10.18C4.34 10.18 3.82 10.084 3.324 9.892C2.828 9.692 2.392 9.408 2.016 9.04C1.64 8.664 1.34 8.208 1.116 7.672C0.892 7.128 0.78 6.516 0.78 5.836C0.78 5.156 0.892 4.548 1.116 4.012C1.34 3.468 1.64 3.012 2.016 2.644C2.392 2.268 2.828 1.984 3.324 1.792C3.82 1.592 4.34 1.492 4.884 1.492C5.428 1.492 5.948 1.592 6.444 1.792C6.94 1.984 7.376 2.268 7.752 2.644C8.128 3.012 8.428 3.468 8.652 4.012C8.876 4.548 8.988 5.156 8.988 5.836ZM8.112 5.836C8.112 5.308 8.032 4.828 7.872 4.396C7.712 3.956 7.488 3.58 7.2 3.268C6.92 2.956 6.58 2.716 6.18 2.548C5.788 2.38 5.356 2.296 4.884 2.296C4.412 2.296 3.976 2.38 3.576 2.548C3.184 2.716 2.844 2.956 2.556 3.268C2.276 3.58 2.056 3.956 1.896 4.396C1.736 4.828 1.656 5.308 1.656 5.836C1.656 6.364 1.736 6.848 1.896 7.288C2.056 7.72 2.276 8.092 2.556 8.404C2.844 8.716 3.184 8.956 3.576 9.124C3.976 9.292 4.412 9.376 4.884 9.376C5.356 9.376 5.788 9.292 6.18 9.124C6.58 8.956 6.92 8.716 7.2 8.404C7.488 8.092 7.712 7.72 7.872 7.288C8.032 6.848 8.112 6.364 8.112 5.836ZM5.028 8.32C4.684 8.32 4.372 8.264 4.092 8.152C3.812 8.04 3.568 7.88 3.36 7.672C3.16 7.464 3.004 7.208 2.892 6.904C2.78 6.592 2.724 6.236 2.724 5.836C2.724 5.444 2.784 5.096 2.904 4.792C3.032 4.488 3.2 4.232 3.408 4.024C3.616 3.808 3.86 3.644 4.14 3.532C4.42 3.42 4.716 3.364 5.028 3.364C5.236 3.364 5.424 3.38 5.592 3.412C5.768 3.444 5.92 3.484 6.048 3.532C6.176 3.572 6.28 3.616 6.36 3.664C6.448 3.704 6.508 3.736 6.54 3.76L6.264 4.48C6.168 4.424 6.012 4.36 5.796 4.288C5.588 4.208 5.344 4.168 5.064 4.168C4.656 4.168 4.316 4.312 4.044 4.6C3.772 4.88 3.636 5.292 3.636 5.836C3.636 6.332 3.76 6.74 4.008 7.06C4.256 7.372 4.62 7.528 5.1 7.528C5.412 7.528 5.668 7.496 5.868 7.432C6.076 7.36 6.236 7.296 6.348 7.24L6.576 7.96C6.536 7.984 6.468 8.02 6.372 8.068C6.284 8.108 6.172 8.148 6.036 8.188C5.9 8.22 5.744 8.252 5.568 8.284C5.4 8.308 5.22 8.32 5.028 8.32ZM18.1548 3.808C18.1548 4.096 18.0948 4.376 17.9748 4.648C17.8628 4.912 17.7108 5.176 17.5188 5.44C17.3268 5.696 17.1108 5.952 16.8708 6.208C16.6308 6.456 16.3908 6.7 16.1508 6.94C16.0148 7.076 15.8548 7.236 15.6708 7.42C15.4948 7.604 15.3268 7.796 15.1668 7.996C15.0068 8.196 14.8708 8.388 14.7588 8.572C14.6548 8.756 14.6028 8.916 14.6028 9.052H18.4308V10H13.3908C13.3828 9.952 13.3788 9.904 13.3788 9.856C13.3788 9.808 13.3788 9.764 13.3788 9.724C13.3788 9.348 13.4388 9 13.5588 8.68C13.6868 8.352 13.8508 8.044 14.0508 7.756C14.2508 7.468 14.4748 7.196 14.7228 6.94C14.9708 6.684 15.2148 6.436 15.4548 6.196C15.6548 6.004 15.8428 5.816 16.0188 5.632C16.2028 5.44 16.3628 5.252 16.4988 5.068C16.6428 4.876 16.7548 4.68 16.8348 4.48C16.9228 4.28 16.9668 4.068 16.9668 3.844C16.9668 3.604 16.9268 3.4 16.8468 3.232C16.7748 3.064 16.6748 2.924 16.5468 2.812C16.4188 2.7 16.2668 2.62 16.0908 2.572C15.9228 2.516 15.7428 2.488 15.5508 2.488C15.3188 2.488 15.1068 2.52 14.9148 2.584C14.7228 2.648 14.5508 2.724 14.3988 2.812C14.2468 2.892 14.1188 2.98 14.0148 3.076C13.9108 3.164 13.8308 3.232 13.7748 3.28L13.2228 2.488C13.2948 2.408 13.4028 2.312 13.5468 2.2C13.6908 2.08 13.8628 1.968 14.0628 1.864C14.2628 1.76 14.4868 1.672 14.7348 1.6C14.9828 1.528 15.2508 1.492 15.5388 1.492C16.4108 1.492 17.0628 1.696 17.4948 2.104C17.9348 2.504 18.1548 3.072 18.1548 3.808ZM19.9242 5.836C19.9242 4.444 20.1682 3.372 20.6562 2.62C21.1522 1.868 21.8362 1.492 22.7082 1.492C23.5802 1.492 24.2602 1.868 24.7482 2.62C25.2442 3.372 25.4922 4.444 25.4922 5.836C25.4922 7.228 25.2442 8.3 24.7482 9.052C24.2602 9.804 23.5802 10.18 22.7082 10.18C21.8362 10.18 21.1522 9.804 20.6562 9.052C20.1682 8.3 19.9242 7.228 19.9242 5.836ZM24.3162 5.836C24.3162 5.38 24.2882 4.948 24.2322 4.54C24.1842 4.132 24.0962 3.776 23.9682 3.472C23.8482 3.168 23.6842 2.928 23.4762 2.752C23.2682 2.568 23.0122 2.476 22.7082 2.476C22.4042 2.476 22.1482 2.568 21.9402 2.752C21.7322 2.928 21.5642 3.168 21.4362 3.472C21.3162 3.776 21.2282 4.132 21.1722 4.54C21.1242 4.948 21.1002 5.38 21.1002 5.836C21.1002 6.292 21.1242 6.724 21.1722 7.132C21.2282 7.54 21.3162 7.896 21.4362 8.2C21.5642 8.504 21.7322 8.748 21.9402 8.932C22.1482 9.108 22.4042 9.196 22.7082 9.196C23.0122 9.196 23.2682 9.108 23.4762 8.932C23.6842 8.748 23.8482 8.504 23.9682 8.2C24.0962 7.896 24.1842 7.54 24.2322 7.132C24.2882 6.724 24.3162 6.292 24.3162 5.836ZM31.7017 3.808C31.7017 4.096 31.6417 4.376 31.5217 4.648C31.4097 4.912 31.2577 5.176 31.0657 5.44C30.8737 5.696 30.6577 5.952 30.4177 6.208C30.1777 6.456 29.9377 6.7 29.6977 6.94C29.5617 7.076 29.4017 7.236 29.2177 7.42C29.0417 7.604 28.8737 7.796 28.7137 7.996C28.5537 8.196 28.4177 8.388 28.3057 8.572C28.2017 8.756 28.1497 8.916 28.1497 9.052H31.9777V10H26.9377C26.9297 9.952 26.9257 9.904 26.9257 9.856C26.9257 9.808 26.9257 9.764 26.9257 9.724C26.9257 9.348 26.9857 9 27.1057 8.68C27.2337 8.352 27.3977 8.044 27.5977 7.756C27.7977 7.468 28.0217 7.196 28.2697 6.94C28.5177 6.684 28.7617 6.436 29.0017 6.196C29.2017 6.004 29.3897 5.816 29.5657 5.632C29.7497 5.44 29.9097 5.252 30.0457 5.068C30.1897 4.876 30.3017 4.68 30.3817 4.48C30.4697 4.28 30.5137 4.068 30.5137 3.844C30.5137 3.604 30.4737 3.4 30.3937 3.232C30.3217 3.064 30.2217 2.924 30.0937 2.812C29.9657 2.7 29.8137 2.62 29.6377 2.572C29.4697 2.516 29.2897 2.488 29.0977 2.488C28.8657 2.488 28.6537 2.52 28.4617 2.584C28.2697 2.648 28.0977 2.724 27.9457 2.812C27.7937 2.892 27.6657 2.98 27.5617 3.076C27.4577 3.164 27.3777 3.232 27.3217 3.28L26.7697 2.488C26.8417 2.408 26.9497 2.312 27.0937 2.2C27.2377 2.08 27.4097 1.968 27.6097 1.864C27.8097 1.76 28.0337 1.672 28.2817 1.6C28.5297 1.528 28.7977 1.492 29.0857 1.492C29.9577 1.492 30.6097 1.696 31.0417 2.104C31.4817 2.504 31.7017 3.072 31.7017 3.808ZM35.2591 4.888C36.4671 4.936 37.3511 5.2 37.9111 5.68C38.4791 6.16 38.7631 6.812 38.7631 7.636C38.7631 8.004 38.6991 8.344 38.5711 8.656C38.4511 8.968 38.2631 9.236 38.0071 9.46C37.7591 9.684 37.4431 9.86 37.0591 9.988C36.6751 10.116 36.2191 10.18 35.6911 10.18C35.4831 10.18 35.2711 10.164 35.0551 10.132C34.8391 10.1 34.6391 10.06 34.4551 10.012C34.2711 9.964 34.1071 9.916 33.9631 9.868C33.8191 9.82 33.7151 9.78 33.6511 9.748L33.8671 8.776C34.0031 8.84 34.2231 8.924 34.5271 9.028C34.8391 9.132 35.2191 9.184 35.6671 9.184C36.0271 9.184 36.3271 9.144 36.5671 9.064C36.8151 8.984 37.0151 8.876 37.1671 8.74C37.3191 8.604 37.4271 8.448 37.4911 8.272C37.5631 8.088 37.5991 7.896 37.5991 7.696C37.5991 7.392 37.5471 7.124 37.4431 6.892C37.3391 6.652 37.1551 6.452 36.8911 6.292C36.6271 6.132 36.2751 6.012 35.8351 5.932C35.3951 5.844 34.8391 5.8 34.1671 5.8C34.2151 5.408 34.2511 5.04 34.2751 4.696C34.3071 4.352 34.3351 4.016 34.3591 3.688C34.3831 3.36 34.4031 3.036 34.4191 2.716C34.4351 2.388 34.4511 2.044 34.4671 1.684H38.4751V2.632H35.4391C35.4311 2.752 35.4191 2.916 35.4031 3.124C35.3871 3.324 35.3711 3.536 35.3551 3.76C35.3391 3.976 35.3231 4.188 35.3071 4.396C35.2911 4.604 35.2751 4.768 35.2591 4.888ZM43.1179 5.836C43.1179 5.124 43.2219 4.496 43.4299 3.952C43.6459 3.408 43.9339 2.956 44.2939 2.596C44.6619 2.228 45.0859 1.952 45.5659 1.768C46.0539 1.584 46.5699 1.492 47.1139 1.492C47.6499 1.492 48.1539 1.584 48.6259 1.768C49.1059 1.952 49.5259 2.228 49.8859 2.596C50.2459 2.956 50.5299 3.408 50.7379 3.952C50.9539 4.496 51.0619 5.124 51.0619 5.836C51.0619 6.548 50.9539 7.176 50.7379 7.72C50.5299 8.264 50.2459 8.72 49.8859 9.088C49.5259 9.448 49.1059 9.72 48.6259 9.904C48.1539 10.088 47.6499 10.18 47.1139 10.18C46.5699 10.18 46.0539 10.088 45.5659 9.904C45.0859 9.72 44.6619 9.448 44.2939 9.088C43.9339 8.72 43.6459 8.264 43.4299 7.72C43.2219 7.176 43.1179 6.548 43.1179 5.836ZM44.3419 5.836C44.3419 6.34 44.4059 6.8 44.5339 7.216C44.6619 7.624 44.8419 7.972 45.0739 8.26C45.3139 8.548 45.6019 8.772 45.9379 8.932C46.2819 9.084 46.6659 9.16 47.0899 9.16C47.5139 9.16 47.8939 9.084 48.2299 8.932C48.5659 8.772 48.8499 8.548 49.0819 8.26C49.3219 7.972 49.5059 7.624 49.6339 7.216C49.7619 6.8 49.8259 6.34 49.8259 5.836C49.8259 5.332 49.7619 4.876 49.6339 4.468C49.5059 4.052 49.3219 3.7 49.0819 3.412C48.8499 3.124 48.5659 2.904 48.2299 2.752C47.8939 2.592 47.5139 2.512 47.0899 2.512C46.6659 2.512 46.2819 2.592 45.9379 2.752C45.6019 2.904 45.3139 3.124 45.0739 3.412C44.8419 3.7 44.6619 4.052 44.5339 4.468C44.4059 4.876 44.3419 5.332 44.3419 5.836ZM56.7537 5.08C56.6177 4.968 56.4217 4.86 56.1657 4.756C55.9097 4.652 55.6297 4.6 55.3257 4.6C55.0057 4.6 54.7297 4.66 54.4977 4.78C54.2737 4.892 54.0897 5.052 53.9457 5.26C53.8017 5.46 53.6977 5.7 53.6337 5.98C53.5697 6.26 53.5377 6.56 53.5377 6.88C53.5377 7.608 53.7177 8.172 54.0777 8.572C54.4377 8.964 54.9177 9.16 55.5177 9.16C55.8217 9.16 56.0737 9.148 56.2737 9.124C56.4817 9.092 56.6417 9.06 56.7537 9.028V5.08ZM56.7537 0.879999L57.8697 0.688V9.82C57.6137 9.892 57.2857 9.964 56.8857 10.036C56.4857 10.108 56.0257 10.144 55.5057 10.144C55.0257 10.144 54.5937 10.068 54.2097 9.916C53.8257 9.764 53.4977 9.548 53.2257 9.268C52.9537 8.988 52.7417 8.648 52.5897 8.248C52.4457 7.84 52.3737 7.384 52.3737 6.88C52.3737 6.4 52.4337 5.96 52.5537 5.56C52.6817 5.16 52.8657 4.816 53.1057 4.528C53.3457 4.24 53.6377 4.016 53.9817 3.856C54.3337 3.696 54.7337 3.616 55.1817 3.616C55.5417 3.616 55.8577 3.664 56.1297 3.76C56.4097 3.856 56.6177 3.948 56.7537 4.036V0.879999ZM59.4401 6.892C59.4401 6.34 59.5201 5.86 59.6801 5.452C59.8401 5.036 60.0521 4.692 60.3161 4.42C60.5801 4.148 60.8841 3.944 61.2281 3.808C61.5721 3.672 61.9241 3.604 62.2841 3.604C63.1241 3.604 63.7681 3.868 64.2161 4.396C64.6641 4.916 64.8881 5.712 64.8881 6.784C64.8881 6.832 64.8881 6.896 64.8881 6.976C64.8881 7.048 64.8841 7.116 64.8761 7.18H60.6041C60.6521 7.828 60.8401 8.32 61.1681 8.656C61.4961 8.992 62.0081 9.16 62.7041 9.16C63.0961 9.16 63.4241 9.128 63.6881 9.064C63.9601 8.992 64.1641 8.924 64.3001 8.86L64.4561 9.796C64.3201 9.868 64.0801 9.944 63.7361 10.024C63.4001 10.104 63.0161 10.144 62.5841 10.144C62.0401 10.144 61.5681 10.064 61.1681 9.904C60.7761 9.736 60.4521 9.508 60.1961 9.22C59.9401 8.932 59.7481 8.592 59.6201 8.2C59.5001 7.8 59.4401 7.364 59.4401 6.892ZM63.7241 6.28C63.7321 5.776 63.6041 5.364 63.3401 5.044C63.0841 4.716 62.7281 4.552 62.2721 4.552C62.0161 4.552 61.7881 4.604 61.5881 4.708C61.3961 4.804 61.2321 4.932 61.0961 5.092C60.9601 5.252 60.8521 5.436 60.7721 5.644C60.7001 5.852 60.6521 6.064 60.6281 6.28H63.7241ZM69.2033 10.144C68.6993 10.144 68.2553 10.064 67.8713 9.904C67.4953 9.744 67.1753 9.52 66.9113 9.232C66.6553 8.944 66.4633 8.604 66.3353 8.212C66.2073 7.812 66.1433 7.372 66.1433 6.892C66.1433 6.412 66.2113 5.972 66.3473 5.572C66.4913 5.172 66.6913 4.828 66.9473 4.54C67.2033 4.244 67.5153 4.016 67.8833 3.856C68.2593 3.688 68.6753 3.604 69.1313 3.604C69.4113 3.604 69.6913 3.628 69.9713 3.676C70.2513 3.724 70.5193 3.8 70.7753 3.904L70.5233 4.852C70.3553 4.772 70.1593 4.708 69.9353 4.66C69.7193 4.612 69.4873 4.588 69.2393 4.588C68.6153 4.588 68.1353 4.784 67.7993 5.176C67.4713 5.568 67.3073 6.14 67.3073 6.892C67.3073 7.228 67.3433 7.536 67.4153 7.816C67.4953 8.096 67.6153 8.336 67.7753 8.536C67.9433 8.736 68.1553 8.892 68.4113 9.004C68.6673 9.108 68.9793 9.16 69.3473 9.16C69.6433 9.16 69.9113 9.132 70.1513 9.076C70.3913 9.02 70.5793 8.96 70.7153 8.896L70.8713 9.832C70.8073 9.872 70.7153 9.912 70.5953 9.952C70.4753 9.984 70.3393 10.012 70.1873 10.036C70.0353 10.068 69.8713 10.092 69.6953 10.108C69.5273 10.132 69.3633 10.144 69.2033 10.144ZM74.7814 10.144C74.2774 10.144 73.8334 10.064 73.4494 9.904C73.0734 9.744 72.7534 9.52 72.4894 9.232C72.2334 8.944 72.0414 8.604 71.9134 8.212C71.7854 7.812 71.7214 7.372 71.7214 6.892C71.7214 6.412 71.7894 5.972 71.9254 5.572C72.0694 5.172 72.2694 4.828 72.5254 4.54C72.7814 4.244 73.0934 4.016 73.4614 3.856C73.8374 3.688 74.2534 3.604 74.7094 3.604C74.9894 3.604 75.2694 3.628 75.5494 3.676C75.8294 3.724 76.0974 3.8 76.3534 3.904L76.1014 4.852C75.9334 4.772 75.7374 4.708 75.5134 4.66C75.2974 4.612 75.0654 4.588 74.8174 4.588C74.1934 4.588 73.7134 4.784 73.3774 5.176C73.0494 5.568 72.8854 6.14 72.8854 6.892C72.8854 7.228 72.9214 7.536 72.9934 7.816C73.0734 8.096 73.1934 8.336 73.3534 8.536C73.5214 8.736 73.7334 8.892 73.9894 9.004C74.2454 9.108 74.5574 9.16 74.9254 9.16C75.2214 9.16 75.4894 9.132 75.7294 9.076C75.9694 9.02 76.1574 8.96 76.2934 8.896L76.4494 9.832C76.3854 9.872 76.2934 9.912 76.1734 9.952C76.0534 9.984 75.9174 10.012 75.7654 10.036C75.6134 10.068 75.4494 10.092 75.2734 10.108C75.1054 10.132 74.9414 10.144 74.7814 10.144ZM78.7635 10H77.6475V3.76H78.7635V10ZM78.1995 2.632C77.9995 2.632 77.8275 2.568 77.6835 2.44C77.5475 2.304 77.4795 2.124 77.4795 1.9C77.4795 1.676 77.5475 1.5 77.6835 1.372C77.8275 1.236 77.9995 1.168 78.1995 1.168C78.3995 1.168 78.5675 1.236 78.7035 1.372C78.8475 1.5 78.9195 1.676 78.9195 1.9C78.9195 2.124 78.8475 2.304 78.7035 2.44C78.5675 2.568 78.3995 2.632 78.1995 2.632ZM85.464 9.172C86.68 9.172 87.288 8.756 87.288 7.924C87.288 7.668 87.232 7.452 87.12 7.276C87.016 7.092 86.872 6.936 86.688 6.808C86.504 6.672 86.292 6.556 86.052 6.46C85.82 6.364 85.572 6.268 85.308 6.172C85.004 6.068 84.716 5.952 84.444 5.824C84.172 5.688 83.936 5.532 83.736 5.356C83.536 5.172 83.376 4.956 83.256 4.708C83.144 4.46 83.088 4.16 83.088 3.808C83.088 3.08 83.336 2.512 83.832 2.104C84.328 1.696 85.012 1.492 85.884 1.492C86.388 1.492 86.844 1.548 87.252 1.66C87.668 1.764 87.972 1.88 88.164 2.008L87.792 2.956C87.624 2.852 87.372 2.752 87.036 2.656C86.708 2.552 86.324 2.5 85.884 2.5C85.66 2.5 85.452 2.524 85.26 2.572C85.068 2.62 84.9 2.692 84.756 2.788C84.612 2.884 84.496 3.008 84.408 3.16C84.328 3.304 84.288 3.476 84.288 3.676C84.288 3.9 84.332 4.088 84.42 4.24C84.508 4.392 84.632 4.528 84.792 4.648C84.952 4.76 85.136 4.864 85.344 4.96C85.56 5.056 85.796 5.152 86.052 5.248C86.412 5.392 86.74 5.536 87.036 5.68C87.34 5.824 87.6 5.996 87.816 6.196C88.04 6.396 88.212 6.636 88.332 6.916C88.452 7.188 88.512 7.52 88.512 7.912C88.512 8.64 88.244 9.2 87.708 9.592C87.18 9.984 86.432 10.18 85.464 10.18C85.136 10.18 84.832 10.156 84.552 10.108C84.28 10.068 84.036 10.02 83.82 9.964C83.604 9.9 83.416 9.836 83.256 9.772C83.104 9.7 82.984 9.64 82.896 9.592L83.244 8.632C83.428 8.736 83.708 8.852 84.084 8.98C84.46 9.108 84.92 9.172 85.464 9.172ZM95.3547 6.88C95.3547 7.376 95.2827 7.824 95.1387 8.224C94.9947 8.624 94.7907 8.968 94.5267 9.256C94.2707 9.544 93.9627 9.768 93.6027 9.928C93.2427 10.08 92.8507 10.156 92.4267 10.156C92.0027 10.156 91.6107 10.08 91.2507 9.928C90.8907 9.768 90.5787 9.544 90.3147 9.256C90.0587 8.968 89.8587 8.624 89.7147 8.224C89.5707 7.824 89.4987 7.376 89.4987 6.88C89.4987 6.392 89.5707 5.948 89.7147 5.548C89.8587 5.14 90.0587 4.792 90.3147 4.504C90.5787 4.216 90.8907 3.996 91.2507 3.844C91.6107 3.684 92.0027 3.604 92.4267 3.604C92.8507 3.604 93.2427 3.684 93.6027 3.844C93.9627 3.996 94.2707 4.216 94.5267 4.504C94.7907 4.792 94.9947 5.14 95.1387 5.548C95.2827 5.948 95.3547 6.392 95.3547 6.88ZM94.1907 6.88C94.1907 6.176 94.0307 5.62 93.7107 5.212C93.3987 4.796 92.9707 4.588 92.4267 4.588C91.8827 4.588 91.4507 4.796 91.1307 5.212C90.8187 5.62 90.6627 6.176 90.6627 6.88C90.6627 7.584 90.8187 8.144 91.1307 8.56C91.4507 8.968 91.8827 9.172 92.4267 9.172C92.9707 9.172 93.3987 8.968 93.7107 8.56C94.0307 8.144 94.1907 7.584 94.1907 6.88ZM98.7968 10.12C98.1088 10.104 97.6208 9.956 97.3328 9.676C97.0448 9.396 96.9008 8.96 96.9008 8.368V0.879999L98.0168 0.688V8.188C98.0168 8.372 98.0328 8.524 98.0648 8.644C98.0968 8.764 98.1488 8.86 98.2208 8.932C98.2928 9.004 98.3888 9.06 98.5088 9.1C98.6288 9.132 98.7768 9.16 98.9528 9.184L98.7968 10.12ZM105.174 9.82C104.918 9.884 104.578 9.952 104.154 10.024C103.738 10.096 103.254 10.132 102.702 10.132C102.222 10.132 101.818 10.064 101.49 9.928C101.162 9.784 100.898 9.584 100.698 9.328C100.498 9.072 100.354 8.772 100.266 8.428C100.178 8.076 100.134 7.688 100.134 7.264V3.76H101.25V7.024C101.25 7.784 101.37 8.328 101.61 8.656C101.85 8.984 102.254 9.148 102.822 9.148C102.942 9.148 103.066 9.144 103.194 9.136C103.322 9.128 103.442 9.12 103.554 9.112C103.666 9.096 103.766 9.084 103.854 9.076C103.95 9.06 104.018 9.044 104.058 9.028V3.76H105.174V9.82ZM108.141 3.76H110.505V4.696H108.141V7.576C108.141 7.888 108.165 8.148 108.213 8.356C108.261 8.556 108.333 8.716 108.429 8.836C108.525 8.948 108.645 9.028 108.789 9.076C108.933 9.124 109.101 9.148 109.293 9.148C109.629 9.148 109.897 9.112 110.097 9.04C110.305 8.96 110.449 8.904 110.529 8.872L110.745 9.796C110.633 9.852 110.437 9.92 110.157 10C109.877 10.088 109.557 10.132 109.197 10.132C108.773 10.132 108.421 10.08 108.141 9.976C107.869 9.864 107.649 9.7 107.481 9.484C107.313 9.268 107.193 9.004 107.121 8.692C107.057 8.372 107.025 8.004 107.025 7.588V2.02L108.141 1.828V3.76ZM113.041 10H111.925V3.76H113.041V10ZM112.477 2.632C112.277 2.632 112.105 2.568 111.961 2.44C111.825 2.304 111.757 2.124 111.757 1.9C111.757 1.676 111.825 1.5 111.961 1.372C112.105 1.236 112.277 1.168 112.477 1.168C112.677 1.168 112.845 1.236 112.981 1.372C113.125 1.5 113.197 1.676 113.197 1.9C113.197 2.124 113.125 2.304 112.981 2.44C112.845 2.568 112.677 2.632 112.477 2.632ZM120.468 6.88C120.468 7.376 120.396 7.824 120.252 8.224C120.108 8.624 119.904 8.968 119.64 9.256C119.384 9.544 119.076 9.768 118.716 9.928C118.356 10.08 117.964 10.156 117.54 10.156C117.116 10.156 116.724 10.08 116.364 9.928C116.004 9.768 115.692 9.544 115.428 9.256C115.172 8.968 114.972 8.624 114.828 8.224C114.684 7.824 114.612 7.376 114.612 6.88C114.612 6.392 114.684 5.948 114.828 5.548C114.972 5.14 115.172 4.792 115.428 4.504C115.692 4.216 116.004 3.996 116.364 3.844C116.724 3.684 117.116 3.604 117.54 3.604C117.964 3.604 118.356 3.684 118.716 3.844C119.076 3.996 119.384 4.216 119.64 4.504C119.904 4.792 120.108 5.14 120.252 5.548C120.396 5.948 120.468 6.392 120.468 6.88ZM119.304 6.88C119.304 6.176 119.144 5.62 118.824 5.212C118.512 4.796 118.084 4.588 117.54 4.588C116.996 4.588 116.564 4.796 116.244 5.212C115.932 5.62 115.776 6.176 115.776 6.88C115.776 7.584 115.932 8.144 116.244 8.56C116.564 8.968 116.996 9.172 117.54 9.172C118.084 9.172 118.512 8.968 118.824 8.56C119.144 8.144 119.304 7.584 119.304 6.88ZM122.038 3.94C122.294 3.876 122.634 3.808 123.058 3.736C123.482 3.664 123.97 3.628 124.522 3.628C125.018 3.628 125.43 3.7 125.758 3.844C126.086 3.98 126.346 4.176 126.538 4.432C126.738 4.68 126.878 4.98 126.958 5.332C127.038 5.684 127.078 6.072 127.078 6.496V10H125.962V6.736C125.962 6.352 125.934 6.024 125.878 5.752C125.83 5.48 125.746 5.26 125.626 5.092C125.506 4.924 125.346 4.804 125.146 4.732C124.946 4.652 124.698 4.612 124.402 4.612C124.282 4.612 124.158 4.616 124.03 4.624C123.902 4.632 123.778 4.644 123.658 4.66C123.546 4.668 123.442 4.68 123.346 4.696C123.258 4.712 123.194 4.724 123.154 4.732V10H122.038V3.94ZM130.381 9.196C130.837 9.196 131.173 9.136 131.389 9.016C131.613 8.896 131.725 8.704 131.725 8.44C131.725 8.168 131.617 7.952 131.401 7.792C131.185 7.632 130.829 7.452 130.333 7.252C130.093 7.156 129.861 7.06 129.637 6.964C129.421 6.86 129.233 6.74 129.073 6.604C128.913 6.468 128.785 6.304 128.689 6.112C128.593 5.92 128.545 5.684 128.545 5.404C128.545 4.852 128.749 4.416 129.157 4.096C129.565 3.768 130.121 3.604 130.825 3.604C131.001 3.604 131.177 3.616 131.353 3.64C131.529 3.656 131.693 3.68 131.845 3.712C131.997 3.736 132.129 3.764 132.241 3.796C132.361 3.828 132.453 3.856 132.517 3.88L132.313 4.84C132.193 4.776 132.005 4.712 131.749 4.648C131.493 4.576 131.185 4.54 130.825 4.54C130.513 4.54 130.241 4.604 130.009 4.732C129.777 4.852 129.661 5.044 129.661 5.308C129.661 5.444 129.685 5.564 129.733 5.668C129.789 5.772 129.869 5.868 129.973 5.956C130.085 6.036 130.221 6.112 130.381 6.184C130.541 6.256 130.733 6.332 130.957 6.412C131.253 6.524 131.517 6.636 131.749 6.748C131.981 6.852 132.177 6.976 132.337 7.12C132.505 7.264 132.633 7.44 132.721 7.648C132.809 7.848 132.853 8.096 132.853 8.392C132.853 8.968 132.637 9.404 132.205 9.7C131.781 9.996 131.173 10.144 130.381 10.144C129.829 10.144 129.397 10.096 129.085 10C128.773 9.912 128.561 9.844 128.449 9.796L128.653 8.836C128.781 8.884 128.985 8.956 129.265 9.052C129.545 9.148 129.917 9.196 130.381 9.196ZM137.134 1.684H138.298V10H137.134V1.684ZM140.284 3.94C140.54 3.876 140.88 3.808 141.304 3.736C141.728 3.664 142.216 3.628 142.768 3.628C143.264 3.628 143.676 3.7 144.004 3.844C144.332 3.98 144.592 4.176 144.784 4.432C144.984 4.68 145.124 4.98 145.204 5.332C145.284 5.684 145.324 6.072 145.324 6.496V10H144.208V6.736C144.208 6.352 144.18 6.024 144.124 5.752C144.076 5.48 143.992 5.26 143.872 5.092C143.752 4.924 143.592 4.804 143.392 4.732C143.192 4.652 142.944 4.612 142.648 4.612C142.528 4.612 142.404 4.616 142.276 4.624C142.148 4.632 142.024 4.644 141.904 4.66C141.792 4.668 141.688 4.68 141.592 4.696C141.504 4.712 141.44 4.724 141.4 4.732V10H140.284V3.94ZM149.887 10.144C149.383 10.144 148.939 10.064 148.555 9.904C148.179 9.744 147.859 9.52 147.595 9.232C147.339 8.944 147.147 8.604 147.019 8.212C146.891 7.812 146.827 7.372 146.827 6.892C146.827 6.412 146.895 5.972 147.031 5.572C147.175 5.172 147.375 4.828 147.631 4.54C147.887 4.244 148.199 4.016 148.567 3.856C148.943 3.688 149.359 3.604 149.815 3.604C150.095 3.604 150.375 3.628 150.655 3.676C150.935 3.724 151.203 3.8 151.459 3.904L151.207 4.852C151.039 4.772 150.843 4.708 150.619 4.66C150.403 4.612 150.171 4.588 149.923 4.588C149.299 4.588 148.819 4.784 148.483 5.176C148.155 5.568 147.991 6.14 147.991 6.892C147.991 7.228 148.027 7.536 148.099 7.816C148.179 8.096 148.299 8.336 148.459 8.536C148.627 8.736 148.839 8.892 149.095 9.004C149.351 9.108 149.663 9.16 150.031 9.16C150.327 9.16 150.595 9.132 150.835 9.076C151.075 9.02 151.263 8.96 151.399 8.896L151.555 9.832C151.491 9.872 151.399 9.912 151.279 9.952C151.159 9.984 151.023 10.012 150.871 10.036C150.719 10.068 150.555 10.092 150.379 10.108C150.211 10.132 150.047 10.144 149.887 10.144ZM154.19 9.352C154.19 9.568 154.118 9.756 153.974 9.916C153.83 10.076 153.634 10.156 153.386 10.156C153.138 10.156 152.942 10.076 152.798 9.916C152.654 9.756 152.582 9.568 152.582 9.352C152.582 9.136 152.654 8.948 152.798 8.788C152.942 8.628 153.138 8.548 153.386 8.548C153.634 8.548 153.83 8.628 153.974 8.788C154.118 8.948 154.19 9.136 154.19 9.352ZM164.229 10C164.093 9.64 163.965 9.288 163.845 8.944C163.725 8.592 163.601 8.236 163.473 7.876H159.705L158.949 10H157.737C158.057 9.12 158.357 8.308 158.637 7.564C158.917 6.812 159.189 6.1 159.453 5.428C159.725 4.756 159.993 4.116 160.257 3.508C160.521 2.892 160.797 2.284 161.085 1.684H162.153C162.441 2.284 162.717 2.892 162.981 3.508C163.245 4.116 163.509 4.756 163.773 5.428C164.045 6.1 164.321 6.812 164.601 7.564C164.881 8.308 165.181 9.12 165.501 10H164.229ZM163.137 6.916C162.881 6.22 162.625 5.548 162.369 4.9C162.121 4.244 161.861 3.616 161.589 3.016C161.309 3.616 161.041 4.244 160.785 4.9C160.537 5.548 160.289 6.22 160.041 6.916H163.137ZM168.43 10.12C167.742 10.104 167.254 9.956 166.966 9.676C166.678 9.396 166.534 8.96 166.534 8.368V0.879999L167.65 0.688V8.188C167.65 8.372 167.666 8.524 167.698 8.644C167.73 8.764 167.782 8.86 167.854 8.932C167.926 9.004 168.022 9.06 168.142 9.1C168.262 9.132 168.41 9.16 168.586 9.184L168.43 10.12ZM171.711 10.12C171.023 10.104 170.535 9.956 170.247 9.676C169.959 9.396 169.815 8.96 169.815 8.368V0.879999L170.931 0.688V8.188C170.931 8.372 170.947 8.524 170.979 8.644C171.011 8.764 171.063 8.86 171.135 8.932C171.207 9.004 171.303 9.06 171.423 9.1C171.543 9.132 171.691 9.16 171.867 9.184L171.711 10.12ZM180.038 6.52C180.166 6.68 180.326 6.892 180.518 7.156C180.718 7.412 180.922 7.7 181.13 8.02C181.338 8.332 181.542 8.66 181.742 9.004C181.95 9.348 182.126 9.68 182.27 10H180.997C180.838 9.696 180.662 9.388 180.47 9.076C180.286 8.764 180.098 8.468 179.906 8.188C179.714 7.9 179.522 7.632 179.33 7.384C179.146 7.136 178.978 6.92 178.826 6.736C178.722 6.744 178.614 6.748 178.502 6.748C178.398 6.748 178.29 6.748 178.178 6.748H177.134V10H175.97V1.804C176.298 1.724 176.662 1.672 177.062 1.648C177.47 1.616 177.842 1.6 178.178 1.6C179.346 1.6 180.234 1.82 180.842 2.26C181.458 2.7 181.766 3.356 181.766 4.228C181.766 4.78 181.618 5.252 181.322 5.644C181.034 6.036 180.606 6.328 180.038 6.52ZM178.274 2.62C177.778 2.62 177.398 2.632 177.134 2.656V5.788H177.962C178.362 5.788 178.722 5.768 179.042 5.728C179.362 5.688 179.63 5.612 179.846 5.5C180.07 5.388 180.242 5.232 180.362 5.032C180.482 4.824 180.542 4.552 180.542 4.216C180.542 3.904 180.482 3.644 180.362 3.436C180.242 3.228 180.078 3.064 179.87 2.944C179.67 2.824 179.43 2.74 179.15 2.692C178.878 2.644 178.586 2.62 178.274 2.62ZM184.56 10H183.444V3.76H184.56V10ZM183.996 2.632C183.796 2.632 183.624 2.568 183.48 2.44C183.344 2.304 183.276 2.124 183.276 1.9C183.276 1.676 183.344 1.5 183.48 1.372C183.624 1.236 183.796 1.168 183.996 1.168C184.196 1.168 184.364 1.236 184.5 1.372C184.644 1.5 184.716 1.676 184.716 1.9C184.716 2.124 184.644 2.304 184.5 2.44C184.364 2.568 184.196 2.632 183.996 2.632ZM190.392 9.376C190.296 9.44 190.108 9.524 189.828 9.628C189.556 9.724 189.236 9.772 188.868 9.772C188.492 9.772 188.136 9.712 187.8 9.592C187.472 9.472 187.184 9.288 186.936 9.04C186.688 8.784 186.492 8.468 186.348 8.092C186.204 7.716 186.132 7.268 186.132 6.748C186.132 6.292 186.2 5.876 186.336 5.5C186.472 5.116 186.668 4.788 186.924 4.516C187.188 4.236 187.508 4.02 187.884 3.868C188.26 3.708 188.684 3.628 189.156 3.628C189.676 3.628 190.128 3.668 190.512 3.748C190.904 3.82 191.232 3.888 191.496 3.952V9.52C191.496 10.48 191.248 11.176 190.752 11.608C190.256 12.04 189.504 12.256 188.496 12.256C188.104 12.256 187.732 12.224 187.38 12.16C187.036 12.096 186.736 12.02 186.48 11.932L186.684 10.96C186.908 11.048 187.18 11.124 187.5 11.188C187.828 11.26 188.168 11.296 188.52 11.296C189.184 11.296 189.66 11.164 189.948 10.9C190.244 10.636 190.392 10.216 190.392 9.64V9.376ZM190.38 4.744C190.268 4.712 190.116 4.684 189.924 4.66C189.74 4.628 189.488 4.612 189.168 4.612C188.568 4.612 188.104 4.808 187.776 5.2C187.456 5.592 187.296 6.112 187.296 6.76C187.296 7.12 187.34 7.428 187.428 7.684C187.524 7.94 187.648 8.152 187.8 8.32C187.96 8.488 188.14 8.612 188.34 8.692C188.548 8.772 188.76 8.812 188.976 8.812C189.272 8.812 189.544 8.772 189.792 8.692C190.04 8.604 190.236 8.504 190.38 8.392V4.744ZM193.417 10V0.879999L194.533 0.688V3.88C194.741 3.8 194.961 3.74 195.193 3.7C195.433 3.652 195.669 3.628 195.901 3.628C196.397 3.628 196.809 3.7 197.137 3.844C197.465 3.98 197.725 4.176 197.917 4.432C198.117 4.68 198.257 4.98 198.337 5.332C198.417 5.684 198.457 6.072 198.457 6.496V10H197.341V6.736C197.341 6.352 197.313 6.024 197.257 5.752C197.209 5.48 197.125 5.26 197.005 5.092C196.885 4.924 196.725 4.804 196.525 4.732C196.325 4.652 196.077 4.612 195.781 4.612C195.661 4.612 195.537 4.62 195.409 4.636C195.281 4.652 195.157 4.672 195.037 4.696C194.925 4.712 194.821 4.732 194.725 4.756C194.637 4.78 194.573 4.8 194.533 4.816V10H193.417ZM201.317 3.76H203.681V4.696H201.317V7.576C201.317 7.888 201.341 8.148 201.389 8.356C201.437 8.556 201.509 8.716 201.605 8.836C201.701 8.948 201.821 9.028 201.965 9.076C202.109 9.124 202.277 9.148 202.469 9.148C202.805 9.148 203.073 9.112 203.273 9.04C203.481 8.96 203.625 8.904 203.705 8.872L203.921 9.796C203.809 9.852 203.613 9.92 203.333 10C203.053 10.088 202.733 10.132 202.373 10.132C201.949 10.132 201.597 10.08 201.317 9.976C201.045 9.864 200.825 9.7 200.657 9.484C200.489 9.268 200.369 9.004 200.297 8.692C200.233 8.372 200.201 8.004 200.201 7.588V2.02L201.317 1.828V3.76ZM206.553 9.196C207.009 9.196 207.345 9.136 207.561 9.016C207.785 8.896 207.897 8.704 207.897 8.44C207.897 8.168 207.789 7.952 207.573 7.792C207.357 7.632 207.001 7.452 206.505 7.252C206.265 7.156 206.033 7.06 205.809 6.964C205.593 6.86 205.405 6.74 205.245 6.604C205.085 6.468 204.957 6.304 204.861 6.112C204.765 5.92 204.717 5.684 204.717 5.404C204.717 4.852 204.921 4.416 205.329 4.096C205.737 3.768 206.293 3.604 206.997 3.604C207.173 3.604 207.349 3.616 207.525 3.64C207.701 3.656 207.865 3.68 208.017 3.712C208.169 3.736 208.301 3.764 208.413 3.796C208.533 3.828 208.625 3.856 208.689 3.88L208.485 4.84C208.365 4.776 208.177 4.712 207.921 4.648C207.665 4.576 207.357 4.54 206.997 4.54C206.685 4.54 206.413 4.604 206.181 4.732C205.949 4.852 205.833 5.044 205.833 5.308C205.833 5.444 205.857 5.564 205.905 5.668C205.961 5.772 206.041 5.868 206.145 5.956C206.257 6.036 206.393 6.112 206.553 6.184C206.713 6.256 206.905 6.332 207.129 6.412C207.425 6.524 207.689 6.636 207.921 6.748C208.153 6.852 208.349 6.976 208.509 7.12C208.677 7.264 208.805 7.44 208.893 7.648C208.981 7.848 209.025 8.096 209.025 8.392C209.025 8.968 208.809 9.404 208.377 9.7C207.953 9.996 207.345 10.144 206.553 10.144C206.001 10.144 205.569 10.096 205.257 10C204.945 9.912 204.733 9.844 204.621 9.796L204.825 8.836C204.953 8.884 205.157 8.956 205.437 9.052C205.717 9.148 206.089 9.196 206.553 9.196ZM217.373 6.52C217.501 6.68 217.661 6.892 217.853 7.156C218.053 7.412 218.257 7.7 218.465 8.02C218.673 8.332 218.877 8.66 219.077 9.004C219.285 9.348 219.461 9.68 219.605 10H218.333C218.173 9.696 217.997 9.388 217.805 9.076C217.621 8.764 217.433 8.468 217.241 8.188C217.049 7.9 216.857 7.632 216.665 7.384C216.481 7.136 216.313 6.92 216.161 6.736C216.057 6.744 215.949 6.748 215.837 6.748C215.733 6.748 215.625 6.748 215.513 6.748H214.469V10H213.305V1.804C213.633 1.724 213.997 1.672 214.397 1.648C214.805 1.616 215.177 1.6 215.513 1.6C216.681 1.6 217.569 1.82 218.177 2.26C218.793 2.7 219.101 3.356 219.101 4.228C219.101 4.78 218.953 5.252 218.657 5.644C218.369 6.036 217.941 6.328 217.373 6.52ZM215.609 2.62C215.113 2.62 214.733 2.632 214.469 2.656V5.788H215.297C215.697 5.788 216.057 5.768 216.377 5.728C216.697 5.688 216.965 5.612 217.181 5.5C217.405 5.388 217.577 5.232 217.697 5.032C217.817 4.824 217.877 4.552 217.877 4.216C217.877 3.904 217.817 3.644 217.697 3.436C217.577 3.228 217.413 3.064 217.205 2.944C217.005 2.824 216.765 2.74 216.485 2.692C216.213 2.644 215.921 2.62 215.609 2.62ZM220.432 6.892C220.432 6.34 220.512 5.86 220.672 5.452C220.832 5.036 221.044 4.692 221.308 4.42C221.572 4.148 221.876 3.944 222.22 3.808C222.564 3.672 222.916 3.604 223.276 3.604C224.116 3.604 224.76 3.868 225.208 4.396C225.656 4.916 225.88 5.712 225.88 6.784C225.88 6.832 225.88 6.896 225.88 6.976C225.88 7.048 225.876 7.116 225.868 7.18H221.596C221.644 7.828 221.832 8.32 222.16 8.656C222.488 8.992 223 9.16 223.696 9.16C224.088 9.16 224.416 9.128 224.68 9.064C224.952 8.992 225.156 8.924 225.292 8.86L225.448 9.796C225.312 9.868 225.072 9.944 224.728 10.024C224.392 10.104 224.008 10.144 223.576 10.144C223.032 10.144 222.56 10.064 222.16 9.904C221.768 9.736 221.444 9.508 221.188 9.22C220.932 8.932 220.74 8.592 220.612 8.2C220.492 7.8 220.432 7.364 220.432 6.892ZM224.716 6.28C224.724 5.776 224.596 5.364 224.332 5.044C224.076 4.716 223.72 4.552 223.264 4.552C223.008 4.552 222.78 4.604 222.58 4.708C222.388 4.804 222.224 4.932 222.088 5.092C221.952 5.252 221.844 5.436 221.764 5.644C221.692 5.852 221.644 6.064 221.62 6.28H224.716ZM228.935 9.196C229.391 9.196 229.727 9.136 229.943 9.016C230.167 8.896 230.279 8.704 230.279 8.44C230.279 8.168 230.171 7.952 229.955 7.792C229.739 7.632 229.383 7.452 228.887 7.252C228.647 7.156 228.415 7.06 228.191 6.964C227.975 6.86 227.787 6.74 227.627 6.604C227.467 6.468 227.339 6.304 227.243 6.112C227.147 5.92 227.099 5.684 227.099 5.404C227.099 4.852 227.303 4.416 227.711 4.096C228.119 3.768 228.675 3.604 229.379 3.604C229.555 3.604 229.731 3.616 229.907 3.64C230.083 3.656 230.247 3.68 230.399 3.712C230.551 3.736 230.683 3.764 230.795 3.796C230.915 3.828 231.007 3.856 231.071 3.88L230.867 4.84C230.747 4.776 230.559 4.712 230.303 4.648C230.047 4.576 229.739 4.54 229.379 4.54C229.067 4.54 228.795 4.604 228.563 4.732C228.331 4.852 228.215 5.044 228.215 5.308C228.215 5.444 228.239 5.564 228.287 5.668C228.343 5.772 228.423 5.868 228.527 5.956C228.639 6.036 228.775 6.112 228.935 6.184C229.095 6.256 229.287 6.332 229.511 6.412C229.807 6.524 230.071 6.636 230.303 6.748C230.535 6.852 230.731 6.976 230.891 7.12C231.059 7.264 231.187 7.44 231.275 7.648C231.363 7.848 231.407 8.096 231.407 8.392C231.407 8.968 231.191 9.404 230.759 9.7C230.335 9.996 229.727 10.144 228.935 10.144C228.383 10.144 227.951 10.096 227.639 10C227.327 9.912 227.115 9.844 227.003 9.796L227.207 8.836C227.335 8.884 227.539 8.956 227.819 9.052C228.099 9.148 228.471 9.196 228.935 9.196ZM232.491 6.892C232.491 6.34 232.571 5.86 232.731 5.452C232.891 5.036 233.103 4.692 233.367 4.42C233.631 4.148 233.935 3.944 234.279 3.808C234.623 3.672 234.975 3.604 235.335 3.604C236.175 3.604 236.819 3.868 237.267 4.396C237.715 4.916 237.939 5.712 237.939 6.784C237.939 6.832 237.939 6.896 237.939 6.976C237.939 7.048 237.935 7.116 237.927 7.18H233.655C233.703 7.828 233.891 8.32 234.219 8.656C234.547 8.992 235.059 9.16 235.755 9.16C236.147 9.16 236.475 9.128 236.739 9.064C237.011 8.992 237.215 8.924 237.351 8.86L237.507 9.796C237.371 9.868 237.131 9.944 236.787 10.024C236.451 10.104 236.067 10.144 235.635 10.144C235.091 10.144 234.619 10.064 234.219 9.904C233.827 9.736 233.503 9.508 233.247 9.22C232.991 8.932 232.799 8.592 232.671 8.2C232.551 7.8 232.491 7.364 232.491 6.892ZM236.775 6.28C236.783 5.776 236.655 5.364 236.391 5.044C236.135 4.716 235.779 4.552 235.323 4.552C235.067 4.552 234.839 4.604 234.639 4.708C234.447 4.804 234.283 4.932 234.147 5.092C234.011 5.252 233.903 5.436 233.823 5.644C233.751 5.852 233.703 6.064 233.679 6.28H236.775ZM241.846 3.628C241.942 3.628 242.05 3.636 242.17 3.652C242.298 3.66 242.422 3.676 242.542 3.7C242.662 3.716 242.77 3.736 242.866 3.76C242.97 3.776 243.046 3.792 243.094 3.808L242.902 4.78C242.814 4.748 242.666 4.712 242.458 4.672C242.258 4.624 241.998 4.6 241.678 4.6C241.47 4.6 241.262 4.624 241.054 4.672C240.854 4.712 240.722 4.74 240.658 4.756V10H239.542V4.024C239.806 3.928 240.134 3.84 240.526 3.76C240.918 3.672 241.358 3.628 241.846 3.628ZM249.301 3.76C248.989 4.928 248.621 6.048 248.197 7.12C247.781 8.192 247.377 9.152 246.985 10H245.977C245.585 9.152 245.177 8.192 244.753 7.12C244.337 6.048 243.973 4.928 243.661 3.76H244.861C244.957 4.152 245.069 4.572 245.197 5.02C245.333 5.46 245.473 5.9 245.617 6.34C245.769 6.772 245.921 7.192 246.073 7.6C246.225 8.008 246.369 8.372 246.505 8.692C246.641 8.372 246.785 8.008 246.937 7.6C247.089 7.192 247.237 6.772 247.381 6.34C247.533 5.9 247.673 5.46 247.801 5.02C247.937 4.572 248.053 4.152 248.149 3.76H249.301ZM249.94 6.892C249.94 6.34 250.02 5.86 250.18 5.452C250.34 5.036 250.552 4.692 250.816 4.42C251.08 4.148 251.384 3.944 251.728 3.808C252.072 3.672 252.424 3.604 252.784 3.604C253.624 3.604 254.268 3.868 254.716 4.396C255.164 4.916 255.388 5.712 255.388 6.784C255.388 6.832 255.388 6.896 255.388 6.976C255.388 7.048 255.384 7.116 255.376 7.18H251.104C251.152 7.828 251.34 8.32 251.668 8.656C251.996 8.992 252.508 9.16 253.204 9.16C253.596 9.16 253.924 9.128 254.188 9.064C254.46 8.992 254.664 8.924 254.8 8.86L254.956 9.796C254.82 9.868 254.58 9.944 254.236 10.024C253.9 10.104 253.516 10.144 253.084 10.144C252.54 10.144 252.068 10.064 251.668 9.904C251.276 9.736 250.952 9.508 250.696 9.22C250.44 8.932 250.248 8.592 250.12 8.2C250 7.8 249.94 7.364 249.94 6.892ZM254.224 6.28C254.232 5.776 254.104 5.364 253.84 5.044C253.584 4.716 253.228 4.552 252.772 4.552C252.516 4.552 252.288 4.604 252.088 4.708C251.896 4.804 251.732 4.932 251.596 5.092C251.46 5.252 251.352 5.436 251.272 5.644C251.2 5.852 251.152 6.064 251.128 6.28H254.224ZM261.023 5.08C260.887 4.968 260.691 4.86 260.435 4.756C260.179 4.652 259.899 4.6 259.595 4.6C259.275 4.6 258.999 4.66 258.767 4.78C258.543 4.892 258.359 5.052 258.215 5.26C258.071 5.46 257.967 5.7 257.903 5.98C257.839 6.26 257.807 6.56 257.807 6.88C257.807 7.608 257.987 8.172 258.347 8.572C258.707 8.964 259.187 9.16 259.787 9.16C260.091 9.16 260.343 9.148 260.543 9.124C260.751 9.092 260.911 9.06 261.023 9.028V5.08ZM261.023 0.879999L262.139 0.688V9.82C261.883 9.892 261.555 9.964 261.155 10.036C260.755 10.108 260.295 10.144 259.775 10.144C259.295 10.144 258.863 10.068 258.479 9.916C258.095 9.764 257.767 9.548 257.495 9.268C257.223 8.988 257.011 8.648 256.859 8.248C256.715 7.84 256.643 7.384 256.643 6.88C256.643 6.4 256.703 5.96 256.823 5.56C256.951 5.16 257.135 4.816 257.375 4.528C257.615 4.24 257.907 4.016 258.251 3.856C258.603 3.696 259.003 3.616 259.451 3.616C259.811 3.616 260.127 3.664 260.399 3.76C260.679 3.856 260.887 3.948 261.023 4.036V0.879999Z" fill="#102B3C"/>
</svg>
