<svg width="70" height="10" viewBox="0 0 70 10" fill="none" xmlns="http://www.w3.org/2000/svg">
<path d="M7.752 0.684C7.448 1.564 7.156 2.38 6.876 3.132C6.604 3.876 6.336 4.584 6.072 5.256C5.808 5.928 5.544 6.572 5.28 7.188C5.024 7.796 4.76 8.4 4.488 9H3.396C3.124 8.4 2.856 7.796 2.592 7.188C2.336 6.572 2.072 5.928 1.8 5.256C1.536 4.584 1.264 3.876 0.984 3.132C0.704 2.38 0.416 1.564 0.12 0.684H1.404C1.836 1.948 2.26 3.164 2.676 4.332C3.092 5.5 3.52 6.596 3.96 7.62C4.4 6.604 4.828 5.512 5.244 4.344C5.66 3.168 6.08 1.948 6.504 0.684H7.752ZM7.94794 5.892C7.94794 5.34 8.02794 4.86 8.18794 4.452C8.34794 4.036 8.55994 3.692 8.82394 3.42C9.08794 3.148 9.39194 2.944 9.73594 2.808C10.0799 2.672 10.4319 2.604 10.7919 2.604C11.6319 2.604 12.2759 2.868 12.7239 3.396C13.1719 3.916 13.3959 4.712 13.3959 5.784C13.3959 5.832 13.3959 5.896 13.3959 5.976C13.3959 6.048 13.3919 6.116 13.3839 6.18H9.11194C9.15994 6.828 9.34794 7.32 9.67594 7.656C10.0039 7.992 10.5159 8.16 11.2119 8.16C11.6039 8.16 11.9319 8.128 12.1959 8.064C12.4679 7.992 12.6719 7.924 12.8079 7.86L12.9639 8.796C12.8279 8.868 12.5879 8.944 12.2439 9.024C11.9079 9.104 11.5239 9.144 11.0919 9.144C10.5479 9.144 10.0759 9.064 9.67594 8.904C9.28394 8.736 8.95994 8.508 8.70394 8.22C8.44794 7.932 8.25594 7.592 8.12794 7.2C8.00794 6.8 7.94794 6.364 7.94794 5.892ZM12.2319 5.28C12.2399 4.776 12.1119 4.364 11.8479 4.044C11.5919 3.716 11.2359 3.552 10.7799 3.552C10.5239 3.552 10.2959 3.604 10.0959 3.708C9.90394 3.804 9.73994 3.932 9.60394 4.092C9.46794 4.252 9.35994 4.436 9.27994 4.644C9.20794 4.852 9.15994 5.064 9.13594 5.28H12.2319ZM17.3031 2.628C17.3991 2.628 17.5071 2.636 17.6271 2.652C17.7551 2.66 17.8791 2.676 17.9991 2.7C18.1191 2.716 18.2271 2.736 18.3231 2.76C18.4271 2.776 18.5031 2.792 18.5511 2.808L18.3591 3.78C18.2711 3.748 18.1231 3.712 17.9151 3.672C17.7151 3.624 17.4551 3.6 17.1351 3.6C16.9271 3.6 16.7191 3.624 16.5111 3.672C16.3111 3.712 16.1791 3.74 16.1151 3.756V9H14.9991V3.024C15.2631 2.928 15.5911 2.84 15.9831 2.76C16.3751 2.672 16.8151 2.628 17.3031 2.628ZM21.08 8.196C21.536 8.196 21.872 8.136 22.088 8.016C22.312 7.896 22.424 7.704 22.424 7.44C22.424 7.168 22.316 6.952 22.1 6.792C21.884 6.632 21.528 6.452 21.032 6.252C20.792 6.156 20.56 6.06 20.336 5.964C20.12 5.86 19.932 5.74 19.772 5.604C19.612 5.468 19.484 5.304 19.388 5.112C19.292 4.92 19.244 4.684 19.244 4.404C19.244 3.852 19.448 3.416 19.856 3.096C20.264 2.768 20.82 2.604 21.524 2.604C21.7 2.604 21.876 2.616 22.052 2.64C22.228 2.656 22.392 2.68 22.544 2.712C22.696 2.736 22.828 2.764 22.94 2.796C23.06 2.828 23.152 2.856 23.216 2.88L23.012 3.84C22.892 3.776 22.704 3.712 22.448 3.648C22.192 3.576 21.884 3.54 21.524 3.54C21.212 3.54 20.94 3.604 20.708 3.732C20.476 3.852 20.36 4.044 20.36 4.308C20.36 4.444 20.384 4.564 20.432 4.668C20.488 4.772 20.568 4.868 20.672 4.956C20.784 5.036 20.92 5.112 21.08 5.184C21.24 5.256 21.432 5.332 21.656 5.412C21.952 5.524 22.216 5.636 22.448 5.748C22.68 5.852 22.876 5.976 23.036 6.12C23.204 6.264 23.332 6.44 23.42 6.648C23.508 6.848 23.552 7.096 23.552 7.392C23.552 7.968 23.336 8.404 22.904 8.7C22.48 8.996 21.872 9.144 21.08 9.144C20.528 9.144 20.096 9.096 19.784 9C19.472 8.912 19.26 8.844 19.148 8.796L19.352 7.836C19.48 7.884 19.684 7.956 19.964 8.052C20.244 8.148 20.616 8.196 21.08 8.196ZM26.0994 9H24.9834V2.76H26.0994V9ZM25.5354 1.632C25.3354 1.632 25.1634 1.568 25.0194 1.44C24.8834 1.304 24.8154 1.124 24.8154 0.9C24.8154 0.676 24.8834 0.5 25.0194 0.372C25.1634 0.235999 25.3354 0.167999 25.5354 0.167999C25.7354 0.167999 25.9034 0.235999 26.0394 0.372C26.1834 0.5 26.2554 0.676 26.2554 0.9C26.2554 1.124 26.1834 1.304 26.0394 1.44C25.9034 1.568 25.7354 1.632 25.5354 1.632ZM33.5266 5.88C33.5266 6.376 33.4546 6.824 33.3106 7.224C33.1666 7.624 32.9626 7.968 32.6986 8.256C32.4426 8.544 32.1346 8.768 31.7746 8.928C31.4146 9.08 31.0226 9.156 30.5986 9.156C30.1746 9.156 29.7826 9.08 29.4226 8.928C29.0626 8.768 28.7506 8.544 28.4866 8.256C28.2306 7.968 28.0306 7.624 27.8866 7.224C27.7426 6.824 27.6706 6.376 27.6706 5.88C27.6706 5.392 27.7426 4.948 27.8866 4.548C28.0306 4.14 28.2306 3.792 28.4866 3.504C28.7506 3.216 29.0626 2.996 29.4226 2.844C29.7826 2.684 30.1746 2.604 30.5986 2.604C31.0226 2.604 31.4146 2.684 31.7746 2.844C32.1346 2.996 32.4426 3.216 32.6986 3.504C32.9626 3.792 33.1666 4.14 33.3106 4.548C33.4546 4.948 33.5266 5.392 33.5266 5.88ZM32.3626 5.88C32.3626 5.176 32.2026 4.62 31.8826 4.212C31.5706 3.796 31.1426 3.588 30.5986 3.588C30.0546 3.588 29.6226 3.796 29.3026 4.212C28.9906 4.62 28.8346 5.176 28.8346 5.88C28.8346 6.584 28.9906 7.144 29.3026 7.56C29.6226 7.968 30.0546 8.172 30.5986 8.172C31.1426 8.172 31.5706 7.968 31.8826 7.56C32.2026 7.144 32.3626 6.584 32.3626 5.88ZM35.0967 2.94C35.3527 2.876 35.6927 2.808 36.1167 2.736C36.5407 2.664 37.0287 2.628 37.5807 2.628C38.0767 2.628 38.4887 2.7 38.8167 2.844C39.1447 2.98 39.4047 3.176 39.5967 3.432C39.7967 3.68 39.9367 3.98 40.0167 4.332C40.0967 4.684 40.1367 5.072 40.1367 5.496V9H39.0207V5.736C39.0207 5.352 38.9927 5.024 38.9367 4.752C38.8887 4.48 38.8047 4.26 38.6847 4.092C38.5647 3.924 38.4047 3.804 38.2047 3.732C38.0047 3.652 37.7567 3.612 37.4607 3.612C37.3407 3.612 37.2167 3.616 37.0887 3.624C36.9607 3.632 36.8367 3.644 36.7167 3.66C36.6047 3.668 36.5007 3.68 36.4047 3.696C36.3167 3.712 36.2527 3.724 36.2127 3.732V9H35.0967V2.94ZM44.9207 2.4C45.3767 2.224 45.8207 2 46.2527 1.728C46.6847 1.448 47.0807 1.1 47.4407 0.684H48.2327V9H47.1167V2.232C47.0207 2.32 46.9007 2.412 46.7567 2.508C46.6207 2.604 46.4687 2.696 46.3007 2.784C46.1407 2.872 45.9687 2.956 45.7847 3.036C45.6087 3.116 45.4367 3.184 45.2687 3.24L44.9207 2.4ZM52.8581 8.352C52.8581 8.568 52.7861 8.756 52.6421 8.916C52.4981 9.076 52.3021 9.156 52.0541 9.156C51.8061 9.156 51.6101 9.076 51.4661 8.916C51.3221 8.756 51.2501 8.568 51.2501 8.352C51.2501 8.136 51.3221 7.948 51.4661 7.788C51.6101 7.628 51.8061 7.548 52.0541 7.548C52.3021 7.548 52.4981 7.628 52.6421 7.788C52.7861 7.948 52.8581 8.136 52.8581 8.352ZM54.1313 4.836C54.1313 3.444 54.3753 2.372 54.8633 1.62C55.3593 0.868 56.0433 0.491999 56.9153 0.491999C57.7873 0.491999 58.4673 0.868 58.9553 1.62C59.4513 2.372 59.6992 3.444 59.6992 4.836C59.6992 6.228 59.4513 7.3 58.9553 8.052C58.4673 8.804 57.7873 9.18 56.9153 9.18C56.0433 9.18 55.3593 8.804 54.8633 8.052C54.3753 7.3 54.1313 6.228 54.1313 4.836ZM58.5233 4.836C58.5233 4.38 58.4953 3.948 58.4393 3.54C58.3913 3.132 58.3033 2.776 58.1753 2.472C58.0553 2.168 57.8913 1.928 57.6833 1.752C57.4753 1.568 57.2193 1.476 56.9153 1.476C56.6113 1.476 56.3553 1.568 56.1473 1.752C55.9393 1.928 55.7713 2.168 55.6433 2.472C55.5233 2.776 55.4353 3.132 55.3793 3.54C55.3313 3.948 55.3073 4.38 55.3073 4.836C55.3073 5.292 55.3313 5.724 55.3793 6.132C55.4353 6.54 55.5233 6.896 55.6433 7.2C55.7713 7.504 55.9393 7.748 56.1473 7.932C56.3553 8.108 56.6113 8.196 56.9153 8.196C57.2193 8.196 57.4753 8.108 57.6833 7.932C57.8913 7.748 58.0553 7.504 58.1753 7.2C58.3033 6.896 58.3913 6.54 58.4393 6.132C58.4953 5.724 58.5233 5.292 58.5233 4.836ZM62.5847 8.352C62.5847 8.568 62.5127 8.756 62.3687 8.916C62.2247 9.076 62.0287 9.156 61.7807 9.156C61.5327 9.156 61.3367 9.076 61.1927 8.916C61.0487 8.756 60.9767 8.568 60.9767 8.352C60.9767 8.136 61.0487 7.948 61.1927 7.788C61.3367 7.628 61.5327 7.548 61.7807 7.548C62.0287 7.548 62.2247 7.628 62.3687 7.788C62.5127 7.948 62.5847 8.136 62.5847 8.352ZM63.8578 4.836C63.8578 3.444 64.1018 2.372 64.5898 1.62C65.0858 0.868 65.7698 0.491999 66.6418 0.491999C67.5138 0.491999 68.1938 0.868 68.6818 1.62C69.1778 2.372 69.4258 3.444 69.4258 4.836C69.4258 6.228 69.1778 7.3 68.6818 8.052C68.1938 8.804 67.5138 9.18 66.6418 9.18C65.7698 9.18 65.0858 8.804 64.5898 8.052C64.1018 7.3 63.8578 6.228 63.8578 4.836ZM68.2498 4.836C68.2498 4.38 68.2218 3.948 68.1658 3.54C68.1178 3.132 68.0298 2.776 67.9018 2.472C67.7818 2.168 67.6178 1.928 67.4098 1.752C67.2018 1.568 66.9458 1.476 66.6418 1.476C66.3378 1.476 66.0818 1.568 65.8738 1.752C65.6658 1.928 65.4978 2.168 65.3698 2.472C65.2498 2.776 65.1618 3.132 65.1058 3.54C65.0578 3.948 65.0338 4.38 65.0338 4.836C65.0338 5.292 65.0578 5.724 65.1058 6.132C65.1618 6.54 65.2498 6.896 65.3698 7.2C65.4978 7.504 65.6658 7.748 65.8738 7.932C66.0818 8.108 66.3378 8.196 66.6418 8.196C66.9458 8.196 67.2018 8.108 67.4098 7.932C67.6178 7.748 67.7818 7.504 67.9018 7.2C68.0298 6.896 68.1178 6.54 68.1658 6.132C68.2218 5.724 68.2498 5.292 68.2498 4.836Z" fill="#102B3C"/>
</svg>
